<svg xmlns="http://www.w3.org/2000/svg" xmlns:xlink="http://www.w3.org/1999/xlink" width="1920" zoomAndPan="magnify" viewBox="0 0 1440 809.999993" height="1080" preserveAspectRatio="xMidYMid meet" version="1.0"><defs><g/><clipPath id="34a1121645"><path d="M 0 0 L 1440 0 L 1440 154.585938 L 0 154.585938 Z M 0 0 " clip-rule="nonzero"/></clipPath><clipPath id="6c2de71f02"><path d="M 104.242188 45.34375 L 202.492188 45.34375 L 202.492188 116.59375 L 104.242188 116.59375 Z M 104.242188 45.34375 " clip-rule="nonzero"/></clipPath></defs><g clip-path="url(#34a1121645)"><path fill="#ffcc02" d="M 0 0 L 1440.175781 0 L 1440.175781 154.585938 L 0 154.585938 Z M 0 0 " fill-opacity="1" fill-rule="nonzero"/></g><g clip-path="url(#6c2de71f02)"><path fill="#000000" d="M 193.992188 45.34375 L 112.738281 45.34375 C 108.066406 45.34375 104.273438 49.140625 104.273438 53.824219 L 104.273438 108.109375 C 104.273438 112.792969 108.066406 116.59375 112.738281 116.59375 L 193.992188 116.59375 C 198.664062 116.59375 202.457031 112.792969 202.457031 108.109375 L 202.457031 53.824219 C 202.457031 49.140625 198.664062 45.34375 193.992188 45.34375 Z M 170.75 77.609375 L 198.496094 51.5 C 198.851562 52.210938 199.070312 52.992188 199.070312 53.824219 L 199.070312 108.109375 C 199.070312 108.753906 198.933594 109.363281 198.714844 109.941406 Z M 193.992188 48.734375 C 194.71875 48.734375 195.414062 48.886719 196.023438 49.175781 L 153.367188 89.3125 L 110.707031 49.175781 C 111.316406 48.886719 112.011719 48.734375 112.738281 48.734375 Z M 108.015625 109.941406 C 107.796875 109.363281 107.660156 108.753906 107.660156 108.109375 L 107.660156 53.824219 C 107.660156 52.992188 107.882812 52.210938 108.238281 51.515625 L 135.980469 77.625 Z M 112.738281 113.199219 C 111.824219 113.199219 110.996094 112.945312 110.25 112.519531 L 138.453125 79.933594 L 152.199219 92.875 C 152.519531 93.179688 152.941406 93.332031 153.347656 93.332031 C 153.753906 93.332031 154.179688 93.179688 154.5 92.875 L 168.246094 79.933594 L 196.480469 112.519531 C 195.734375 112.945312 194.90625 113.199219 193.992188 113.199219 Z M 112.738281 113.199219 " fill-opacity="1" fill-rule="nonzero"/></g><g fill="#191919" fill-opacity="1"><g transform="translate(237.235131, 85.542455)"><g><path d="M 20.0625 -9 L 23.859375 -27.203125 L 29.0625 -27.203125 L 23.40625 0 L 18.15625 0 L 10.828125 -18.28125 L 6.984375 0 L 1.78125 0 L 7.484375 -27.203125 L 12.6875 -27.203125 Z M 20.0625 -9 "/></g></g></g><g fill="#191919" fill-opacity="1"><g transform="translate(264.665531, 85.542455)"><g><path d="M 25.65625 0 L 20.375 0 L 19.453125 -6 L 8.65625 -6 L 5.390625 0 L -0.34375 0 L 15.046875 -27.203125 L 21.234375 -27.203125 Z M 11.203125 -10.5625 L 18.765625 -10.5625 L 17.21875 -21.515625 Z M 11.203125 -10.5625 "/></g></g></g><g fill="#191919" fill-opacity="1"><g transform="translate(292.09593, 85.542455)"><g><path d="M 17.96875 -27.671875 C 20.882812 -27.671875 23.265625 -26.890625 25.109375 -25.328125 C 26.960938 -23.765625 28.054688 -21.601562 28.390625 -18.84375 L 23.03125 -18.3125 C 22.695312 -19.8125 22.128906 -20.941406 21.328125 -21.703125 C 20.535156 -22.460938 19.40625 -22.84375 17.9375 -22.84375 C 16.1875 -22.84375 14.648438 -22.296875 13.328125 -21.203125 C 12.015625 -20.109375 11 -18.65625 10.28125 -16.84375 C 9.5625 -15.039062 9.203125 -13.113281 9.203125 -11.0625 C 9.203125 -8.976562 9.703125 -7.316406 10.703125 -6.078125 C 11.703125 -4.835938 13.023438 -4.21875 14.671875 -4.21875 C 16.066406 -4.21875 17.363281 -4.671875 18.5625 -5.578125 C 19.769531 -6.492188 20.6875 -7.898438 21.3125 -9.796875 L 26.9375 -8.96875 C 25.875 -5.957031 24.242188 -3.632812 22.046875 -2 C 19.859375 -0.363281 17.257812 0.453125 14.25 0.453125 C 10.851562 0.453125 8.234375 -0.554688 6.390625 -2.578125 C 4.554688 -4.609375 3.640625 -7.523438 3.640625 -11.328125 C 3.640625 -14.410156 4.257812 -17.191406 5.5 -19.671875 C 6.75 -22.160156 8.460938 -24.113281 10.640625 -25.53125 C 12.816406 -26.957031 15.257812 -27.671875 17.96875 -27.671875 Z M 17.96875 -27.671875 "/></g></g></g><g fill="#191919" fill-opacity="1"><g transform="translate(319.52633, 85.542455)"><g><path d="M 10.796875 -16.71875 L 21.3125 -16.71875 L 23.515625 -27.203125 L 29.109375 -27.203125 L 23.453125 0 L 17.859375 0 L 20.375 -12.15625 L 9.84375 -12.15625 L 7.296875 0 L 1.703125 0 L 7.40625 -27.203125 L 13 -27.203125 Z M 10.796875 -16.71875 "/></g></g></g><g fill="#191919" fill-opacity="1"><g transform="translate(346.956729, 85.542455)"><g><path d="M 15.390625 -27.671875 C 18.429688 -27.671875 20.859375 -26.957031 22.671875 -25.53125 C 24.484375 -24.113281 25.476562 -22.085938 25.65625 -19.453125 L 20.296875 -19.1875 C 20.035156 -21.875 18.375 -23.21875 15.3125 -23.21875 C 13.863281 -23.21875 12.785156 -22.960938 12.078125 -22.453125 C 11.367188 -21.953125 11.015625 -21.257812 11.015625 -20.375 C 11.015625 -19.738281 11.234375 -19.175781 11.671875 -18.6875 C 12.117188 -18.207031 12.671875 -17.800781 13.328125 -17.46875 C 13.992188 -17.144531 14.945312 -16.726562 16.1875 -16.21875 C 17.78125 -15.5625 19.085938 -14.9375 20.109375 -14.34375 C 21.140625 -13.75 22.015625 -12.953125 22.734375 -11.953125 C 23.460938 -10.953125 23.828125 -9.71875 23.828125 -8.25 C 23.828125 -6.65625 23.394531 -5.195312 22.53125 -3.875 C 21.664062 -2.5625 20.421875 -1.507812 18.796875 -0.71875 C 17.179688 0.0625 15.257812 0.453125 13.03125 0.453125 C 9.613281 0.453125 6.976562 -0.304688 5.125 -1.828125 C 3.28125 -3.347656 2.359375 -5.640625 2.359375 -8.703125 L 2.359375 -8.8125 L 7.671875 -9.078125 C 7.722656 -7.941406 7.894531 -7.023438 8.1875 -6.328125 C 8.476562 -5.628906 9.003906 -5.101562 9.765625 -4.75 C 10.523438 -4.394531 11.613281 -4.21875 13.03125 -4.21875 C 14.78125 -4.21875 16.09375 -4.519531 16.96875 -5.125 C 17.84375 -5.738281 18.28125 -6.550781 18.28125 -7.5625 C 18.28125 -8.195312 18.101562 -8.726562 17.75 -9.15625 C 17.394531 -9.582031 16.828125 -9.992188 16.046875 -10.390625 C 15.273438 -10.785156 14.066406 -11.335938 12.421875 -12.046875 C 10.984375 -12.648438 9.796875 -13.253906 8.859375 -13.859375 C 7.921875 -14.472656 7.148438 -15.242188 6.546875 -16.171875 C 5.953125 -17.097656 5.65625 -18.242188 5.65625 -19.609375 C 5.65625 -21.203125 6.03125 -22.597656 6.78125 -23.796875 C 7.53125 -25.003906 8.640625 -25.953125 10.109375 -26.640625 C 11.578125 -27.328125 13.335938 -27.671875 15.390625 -27.671875 Z M 15.390625 -27.671875 "/></g></g></g><g fill="#191919" fill-opacity="1"><g transform="translate(372.297553, 85.542455)"><g><path d="M 26.453125 -22.640625 L 11.890625 -22.640625 L 10.609375 -16.484375 L 24.65625 -16.484375 L 23.71875 -11.9375 L 9.65625 -11.9375 L 8.09375 -4.5625 L 23.75 -4.5625 L 22.796875 0 L 1.5625 0 L 7.265625 -27.203125 L 27.390625 -27.203125 Z M 26.453125 -22.640625 "/></g></g></g><g fill="#191919" fill-opacity="1"><g transform="translate(397.638376, 85.542455)"><g><path d="M 20.0625 -9 L 23.859375 -27.203125 L 29.0625 -27.203125 L 23.40625 0 L 18.15625 0 L 10.828125 -18.28125 L 6.984375 0 L 1.78125 0 L 7.484375 -27.203125 L 12.6875 -27.203125 Z M 20.0625 -9 "/></g></g></g><g fill="#191919" fill-opacity="1"><g transform="translate(425.068776, 85.542455)"><g><path d="M 22.765625 -25.921875 C 24.160156 -25.128906 25.304688 -23.910156 26.203125 -22.265625 C 27.097656 -20.617188 27.546875 -18.492188 27.546875 -15.890625 C 27.546875 -13.660156 27.132812 -11.378906 26.3125 -9.046875 C 25.488281 -6.710938 24.140625 -4.785156 22.265625 -3.265625 C 21.328125 -2.503906 20.453125 -1.898438 19.640625 -1.453125 C 18.835938 -1.015625 17.820312 -0.660156 16.59375 -0.390625 C 15.363281 -0.128906 13.796875 0 11.890625 0 L 1.703125 0 L 7.40625 -27.203125 L 17.0625 -27.203125 C 19.3125 -27.203125 21.210938 -26.773438 22.765625 -25.921875 Z M 8.203125 -4.375 L 12.046875 -4.375 C 13.515625 -4.375 14.710938 -4.523438 15.640625 -4.828125 C 16.566406 -5.128906 17.3125 -5.53125 17.875 -6.03125 C 18.445312 -6.539062 19.050781 -7.226562 19.6875 -8.09375 C 20.46875 -9.15625 21.046875 -10.382812 21.421875 -11.78125 C 21.804688 -13.175781 22 -14.59375 22 -16.03125 C 22 -17.8125 21.75 -19.179688 21.25 -20.140625 C 20.757812 -21.097656 20.054688 -21.753906 19.140625 -22.109375 C 18.234375 -22.460938 17.0625 -22.640625 15.625 -22.640625 L 12.046875 -22.640625 Z M 8.203125 -4.375 "/></g></g></g><g fill="#191919" fill-opacity="1"><g transform="translate(452.499175, 85.542455)"><g><path d="M 26.453125 -22.640625 L 11.890625 -22.640625 L 10.609375 -16.484375 L 24.65625 -16.484375 L 23.71875 -11.9375 L 9.65625 -11.9375 L 8.09375 -4.5625 L 23.75 -4.5625 L 22.796875 0 L 1.5625 0 L 7.265625 -27.203125 L 27.390625 -27.203125 Z M 26.453125 -22.640625 "/></g></g></g><g fill="#191919" fill-opacity="1"><g transform="translate(477.84001, 85.542455)"><g><path d="M 25.65625 0 L 20.375 0 L 19.453125 -6 L 8.65625 -6 L 5.390625 0 L -0.34375 0 L 15.046875 -27.203125 L 21.234375 -27.203125 Z M 11.203125 -10.5625 L 18.765625 -10.5625 L 17.21875 -21.515625 Z M 11.203125 -10.5625 "/></g></g></g><g fill="#191919" fill-opacity="1"><g transform="translate(505.270398, 85.542455)"><g><path d="M 9.796875 -12.390625 C 9.523438 -11.148438 9.347656 -10.390625 9.265625 -10.109375 C 9.171875 -9.648438 9.09375 -9.242188 9.03125 -8.890625 C 8.96875 -8.535156 8.9375 -8.191406 8.9375 -7.859375 C 8.9375 -6.796875 9.347656 -5.921875 10.171875 -5.234375 C 10.992188 -4.554688 12.140625 -4.21875 13.609375 -4.21875 C 15.203125 -4.21875 16.441406 -4.546875 17.328125 -5.203125 C 18.210938 -5.859375 18.851562 -6.722656 19.25 -7.796875 C 19.644531 -8.878906 20.039062 -10.375 20.4375 -12.28125 L 23.5625 -27.203125 L 29.140625 -27.203125 L 25.984375 -12.203125 C 25.484375 -9.742188 24.878906 -7.648438 24.171875 -5.921875 C 23.460938 -4.203125 22.238281 -2.707031 20.5 -1.4375 C 18.757812 -0.175781 16.375 0.453125 13.34375 0.453125 C 11.238281 0.453125 9.453125 0.0976562 7.984375 -0.609375 C 6.515625 -1.316406 5.410156 -2.296875 4.671875 -3.546875 C 3.941406 -4.804688 3.578125 -6.234375 3.578125 -7.828125 C 3.578125 -8.410156 3.628906 -9.066406 3.734375 -9.796875 C 3.847656 -10.535156 3.957031 -11.140625 4.0625 -11.609375 C 4.164062 -12.078125 4.226562 -12.398438 4.25 -12.578125 L 7.296875 -27.203125 L 12.921875 -27.203125 Z M 9.796875 -12.390625 "/></g></g></g><g fill="#191919" fill-opacity="1"><g transform="translate(532.700786, 85.542455)"><g><path d="M 25.1875 -22.640625 L 11.734375 -22.640625 L 10.375 -16.15625 L 23.515625 -16.15625 L 22.578125 -11.59375 L 9.421875 -11.59375 L 6.984375 0 L 1.40625 0 L 7.109375 -27.203125 L 26.140625 -27.203125 Z M 25.1875 -22.640625 "/></g></g></g><g fill="#191919" fill-opacity="1"><g transform="translate(555.914027, 85.542455)"><g><path d="M 25.921875 -22.640625 L 18.046875 -22.640625 L 13.296875 0 L 7.71875 0 L 12.46875 -22.640625 L 4.484375 -22.640625 L 5.4375 -27.203125 L 26.859375 -27.203125 Z M 25.921875 -22.640625 "/></g></g></g><g fill="#191919" fill-opacity="1"><g transform="translate(579.127268, 85.542455)"><g><path d="M 25.15625 -26.1875 C 26.070312 -25.675781 26.8125 -24.890625 27.375 -23.828125 C 27.945312 -22.765625 28.234375 -21.484375 28.234375 -19.984375 C 28.234375 -17.703125 27.53125 -15.820312 26.125 -14.34375 C 24.71875 -12.863281 22.632812 -11.929688 19.875 -11.546875 C 20.757812 -10.710938 21.679688 -9.421875 22.640625 -7.671875 C 23.609375 -5.921875 24.75 -3.363281 26.0625 0 L 20.0625 0 C 19.601562 -1.445312 18.664062 -3.816406 17.25 -7.109375 C 16.769531 -8.273438 16.289062 -9.15625 15.8125 -9.75 C 15.332031 -10.34375 14.835938 -10.738281 14.328125 -10.9375 C 13.816406 -11.144531 13.195312 -11.25 12.46875 -11.25 L 9.6875 -11.25 L 7.328125 0 L 1.75 0 L 7.453125 -27.203125 L 19.84375 -27.203125 C 21 -27.203125 21.984375 -27.132812 22.796875 -27 C 23.609375 -26.863281 24.394531 -26.59375 25.15625 -26.1875 Z M 10.5625 -15.390625 L 15.046875 -15.390625 C 16.765625 -15.390625 18.039062 -15.503906 18.875 -15.734375 C 19.71875 -15.960938 20.46875 -16.316406 21.125 -16.796875 C 21.632812 -17.171875 22.019531 -17.679688 22.28125 -18.328125 C 22.550781 -18.972656 22.6875 -19.5 22.6875 -19.90625 C 22.6875 -21 22.34375 -21.726562 21.65625 -22.09375 C 20.976562 -22.457031 19.992188 -22.640625 18.703125 -22.640625 L 12.078125 -22.640625 Z M 10.5625 -15.390625 "/></g></g></g><g fill="#191919" fill-opacity="1"><g transform="translate(606.557656, 85.542455)"><g><path d="M 25.65625 0 L 20.375 0 L 19.453125 -6 L 8.65625 -6 L 5.390625 0 L -0.34375 0 L 15.046875 -27.203125 L 21.234375 -27.203125 Z M 11.203125 -10.5625 L 18.765625 -10.5625 L 17.21875 -21.515625 Z M 11.203125 -10.5625 "/></g></g></g><g fill="#191919" fill-opacity="1"><g transform="translate(633.988044, 85.542455)"><g><path d="M 18.359375 -27.671875 C 21.472656 -27.671875 24 -26.945312 25.9375 -25.5 C 27.875 -24.050781 29.160156 -21.910156 29.796875 -19.078125 L 24.59375 -18.5 C 23.65625 -21.59375 21.613281 -23.140625 18.46875 -23.140625 C 16.519531 -23.140625 14.8125 -22.617188 13.34375 -21.578125 C 11.875 -20.546875 10.734375 -19.109375 9.921875 -17.265625 C 9.109375 -15.429688 8.703125 -13.347656 8.703125 -11.015625 C 8.703125 -8.785156 9.195312 -7.09375 10.1875 -5.9375 C 11.175781 -4.789062 12.707031 -4.21875 14.78125 -4.21875 C 15.945312 -4.21875 17.148438 -4.367188 18.390625 -4.671875 C 19.628906 -4.972656 20.769531 -5.390625 21.8125 -5.921875 L 22.640625 -10 L 15.6875 -10 L 16.640625 -14.546875 L 28.796875 -14.546875 L 26.375 -2.84375 C 24.875 -1.882812 23.09375 -1.09375 21.03125 -0.46875 C 18.96875 0.144531 16.859375 0.453125 14.703125 0.453125 C 10.773438 0.453125 7.898438 -0.582031 6.078125 -2.65625 C 4.253906 -4.738281 3.34375 -7.488281 3.34375 -10.90625 C 3.34375 -13.84375 3.957031 -16.597656 5.1875 -19.171875 C 6.414062 -21.742188 8.171875 -23.800781 10.453125 -25.34375 C 12.734375 -26.894531 15.367188 -27.671875 18.359375 -27.671875 Z M 18.359375 -27.671875 "/></g></g></g><g fill="#191919" fill-opacity="1"><g transform="translate(663.546027, 85.542455)"><g><path d="M 11.8125 -7.21875 L 1.484375 -7.21875 L 2.546875 -12.390625 L 12.875 -12.390625 Z M 11.8125 -7.21875 "/></g></g></g><g fill="#191919" fill-opacity="1"><g transform="translate(676.197423, 85.542455)"><g><path d="M 23.296875 -26.375 C 24.429688 -25.914062 25.34375 -25.171875 26.03125 -24.140625 C 26.71875 -23.117188 27.0625 -21.925781 27.0625 -20.5625 C 27.0625 -17.445312 25.335938 -15.316406 21.890625 -14.171875 C 23.304688 -13.765625 24.398438 -13.070312 25.171875 -12.09375 C 25.941406 -11.125 26.328125 -10.003906 26.328125 -8.734375 C 26.328125 -7.847656 26.128906 -6.828125 25.734375 -5.671875 C 25.347656 -4.523438 24.6875 -3.519531 23.75 -2.65625 C 22.738281 -1.71875 21.570312 -1.039062 20.25 -0.625 C 18.9375 -0.207031 17.113281 0 14.78125 0 L 1.59375 0 L 7.296875 -27.203125 L 17.4375 -27.203125 C 19.96875 -27.203125 21.921875 -26.925781 23.296875 -26.375 Z M 10.609375 -16.21875 L 15.203125 -16.21875 C 17.148438 -16.21875 18.566406 -16.410156 19.453125 -16.796875 C 20.035156 -17.046875 20.523438 -17.457031 20.921875 -18.03125 C 21.316406 -18.601562 21.515625 -19.242188 21.515625 -19.953125 C 21.515625 -20.910156 21.1875 -21.597656 20.53125 -22.015625 C 19.882812 -22.429688 18.84375 -22.640625 17.40625 -22.640625 L 11.9375 -22.640625 Z M 8.125 -4.40625 L 14.25 -4.40625 C 15.644531 -4.40625 16.625 -4.460938 17.1875 -4.578125 C 17.757812 -4.691406 18.3125 -4.898438 18.84375 -5.203125 C 19.375 -5.535156 19.796875 -5.984375 20.109375 -6.546875 C 20.429688 -7.117188 20.59375 -7.695312 20.59375 -8.28125 C 20.59375 -9.375 20.21875 -10.175781 19.46875 -10.6875 C 18.726562 -11.207031 17.710938 -11.46875 16.421875 -11.46875 L 9.609375 -11.46875 Z M 8.125 -4.40625 "/></g></g></g><g fill="#191919" fill-opacity="1"><g transform="translate(703.627812, 85.542455)"><g><path d="M 9.796875 -12.390625 C 9.523438 -11.148438 9.347656 -10.390625 9.265625 -10.109375 C 9.171875 -9.648438 9.09375 -9.242188 9.03125 -8.890625 C 8.96875 -8.535156 8.9375 -8.191406 8.9375 -7.859375 C 8.9375 -6.796875 9.347656 -5.921875 10.171875 -5.234375 C 10.992188 -4.554688 12.140625 -4.21875 13.609375 -4.21875 C 15.203125 -4.21875 16.441406 -4.546875 17.328125 -5.203125 C 18.210938 -5.859375 18.851562 -6.722656 19.25 -7.796875 C 19.644531 -8.878906 20.039062 -10.375 20.4375 -12.28125 L 23.5625 -27.203125 L 29.140625 -27.203125 L 25.984375 -12.203125 C 25.484375 -9.742188 24.878906 -7.648438 24.171875 -5.921875 C 23.460938 -4.203125 22.238281 -2.707031 20.5 -1.4375 C 18.757812 -0.175781 16.375 0.453125 13.34375 0.453125 C 11.238281 0.453125 9.453125 0.0976562 7.984375 -0.609375 C 6.515625 -1.316406 5.410156 -2.296875 4.671875 -3.546875 C 3.941406 -4.804688 3.578125 -6.234375 3.578125 -7.828125 C 3.578125 -8.410156 3.628906 -9.066406 3.734375 -9.796875 C 3.847656 -10.535156 3.957031 -11.140625 4.0625 -11.609375 C 4.164062 -12.078125 4.226562 -12.398438 4.25 -12.578125 L 7.296875 -27.203125 L 12.921875 -27.203125 Z M 9.796875 -12.390625 "/></g></g></g><g fill="#191919" fill-opacity="1"><g transform="translate(731.0582, 85.542455)"><g><path d="M 17.96875 -27.671875 C 20.882812 -27.671875 23.265625 -26.890625 25.109375 -25.328125 C 26.960938 -23.765625 28.054688 -21.601562 28.390625 -18.84375 L 23.03125 -18.3125 C 22.695312 -19.8125 22.128906 -20.941406 21.328125 -21.703125 C 20.535156 -22.460938 19.40625 -22.84375 17.9375 -22.84375 C 16.1875 -22.84375 14.648438 -22.296875 13.328125 -21.203125 C 12.015625 -20.109375 11 -18.65625 10.28125 -16.84375 C 9.5625 -15.039062 9.203125 -13.113281 9.203125 -11.0625 C 9.203125 -8.976562 9.703125 -7.316406 10.703125 -6.078125 C 11.703125 -4.835938 13.023438 -4.21875 14.671875 -4.21875 C 16.066406 -4.21875 17.363281 -4.671875 18.5625 -5.578125 C 19.769531 -6.492188 20.6875 -7.898438 21.3125 -9.796875 L 26.9375 -8.96875 C 25.875 -5.957031 24.242188 -3.632812 22.046875 -2 C 19.859375 -0.363281 17.257812 0.453125 14.25 0.453125 C 10.851562 0.453125 8.234375 -0.554688 6.390625 -2.578125 C 4.554688 -4.609375 3.640625 -7.523438 3.640625 -11.328125 C 3.640625 -14.410156 4.257812 -17.191406 5.5 -19.671875 C 6.75 -22.160156 8.460938 -24.113281 10.640625 -25.53125 C 12.816406 -26.957031 15.257812 -27.671875 17.96875 -27.671875 Z M 17.96875 -27.671875 "/></g></g></g><g fill="#191919" fill-opacity="1"><g transform="translate(758.488589, 85.542455)"><g><path d="M 10.796875 -16.71875 L 21.3125 -16.71875 L 23.515625 -27.203125 L 29.109375 -27.203125 L 23.453125 0 L 17.859375 0 L 20.375 -12.15625 L 9.84375 -12.15625 L 7.296875 0 L 1.703125 0 L 7.40625 -27.203125 L 13 -27.203125 Z M 10.796875 -16.71875 "/></g></g></g><g fill="#191919" fill-opacity="1"><g transform="translate(785.918977, 85.542455)"><g><path d="M 26.453125 -22.640625 L 11.890625 -22.640625 L 10.609375 -16.484375 L 24.65625 -16.484375 L 23.71875 -11.9375 L 9.65625 -11.9375 L 8.09375 -4.5625 L 23.75 -4.5625 L 22.796875 0 L 1.5625 0 L 7.265625 -27.203125 L 27.390625 -27.203125 Z M 26.453125 -22.640625 "/></g></g></g><g fill="#191919" fill-opacity="1"><g transform="translate(811.259811, 85.542455)"><g><path d="M 20.0625 -9 L 23.859375 -27.203125 L 29.0625 -27.203125 L 23.40625 0 L 18.15625 0 L 10.828125 -18.28125 L 6.984375 0 L 1.78125 0 L 7.484375 -27.203125 L 12.6875 -27.203125 Z M 20.0625 -9 "/></g></g></g><g fill="#191919" fill-opacity="1"><g transform="translate(838.6902, 85.542455)"><g><path d="M 6.84375 0 L 1.59375 0 L 2.65625 -5.171875 L 7.9375 -5.171875 Z M 6.84375 0 "/></g></g></g><g fill="#e00217" fill-opacity="1"><g transform="translate(849.258538, 85.542455)"><g><path d="M 22.765625 -25.921875 C 24.160156 -25.128906 25.304688 -23.910156 26.203125 -22.265625 C 27.097656 -20.617188 27.546875 -18.492188 27.546875 -15.890625 C 27.546875 -13.660156 27.132812 -11.378906 26.3125 -9.046875 C 25.488281 -6.710938 24.140625 -4.785156 22.265625 -3.265625 C 21.328125 -2.503906 20.453125 -1.898438 19.640625 -1.453125 C 18.835938 -1.015625 17.820312 -0.660156 16.59375 -0.390625 C 15.363281 -0.128906 13.796875 0 11.890625 0 L 1.703125 0 L 7.40625 -27.203125 L 17.0625 -27.203125 C 19.3125 -27.203125 21.210938 -26.773438 22.765625 -25.921875 Z M 8.203125 -4.375 L 12.046875 -4.375 C 13.515625 -4.375 14.710938 -4.523438 15.640625 -4.828125 C 16.566406 -5.128906 17.3125 -5.53125 17.875 -6.03125 C 18.445312 -6.539062 19.050781 -7.226562 19.6875 -8.09375 C 20.46875 -9.15625 21.046875 -10.382812 21.421875 -11.78125 C 21.804688 -13.175781 22 -14.59375 22 -16.03125 C 22 -17.8125 21.75 -19.179688 21.25 -20.140625 C 20.757812 -21.097656 20.054688 -21.753906 19.140625 -22.109375 C 18.234375 -22.460938 17.0625 -22.640625 15.625 -22.640625 L 12.046875 -22.640625 Z M 8.203125 -4.375 "/></g></g></g><g fill="#e00217" fill-opacity="1"><g transform="translate(876.688937, 85.542455)"><g><path d="M 26.453125 -22.640625 L 11.890625 -22.640625 L 10.609375 -16.484375 L 24.65625 -16.484375 L 23.71875 -11.9375 L 9.65625 -11.9375 L 8.09375 -4.5625 L 23.75 -4.5625 L 22.796875 0 L 1.5625 0 L 7.265625 -27.203125 L 27.390625 -27.203125 Z M 26.453125 -22.640625 "/></g></g></g><g fill="#191919" fill-opacity="1"><g transform="translate(237.390042, 112.538635)"><g><path d="M 14.921875 -15.140625 C 15.515625 -14.535156 15.957031 -13.773438 16.25 -12.859375 C 16.550781 -11.941406 16.703125 -10.976562 16.703125 -9.96875 C 16.703125 -8.757812 16.484375 -7.492188 16.046875 -6.171875 C 15.609375 -4.859375 14.9375 -3.707031 14.03125 -2.71875 C 13.226562 -1.84375 12.300781 -1.171875 11.25 -0.703125 C 10.207031 -0.234375 8.882812 0 7.28125 0 L 1.03125 0 L 4.53125 -16.828125 L 9.984375 -16.828125 C 11.140625 -16.828125 12.101562 -16.691406 12.875 -16.421875 C 13.65625 -16.160156 14.335938 -15.734375 14.921875 -15.140625 Z M 3.671875 -1.90625 L 6.484375 -1.90625 C 7.921875 -1.90625 9.0625 -2.050781 9.90625 -2.34375 C 10.757812 -2.644531 11.476562 -3.101562 12.0625 -3.71875 C 13.632812 -5.40625 14.421875 -7.519531 14.421875 -10.0625 C 14.421875 -11.863281 14.019531 -13.125 13.21875 -13.84375 C 12.425781 -14.5625 11.238281 -14.921875 9.65625 -14.921875 L 6.390625 -14.921875 Z M 3.671875 -1.90625 "/></g></g></g><g fill="#191919" fill-opacity="1"><g transform="translate(254.35426, 112.538635)"><g><path d="M 7.6875 -12.453125 C 8.90625 -12.453125 9.914062 -12.140625 10.71875 -11.515625 C 11.28125 -11.085938 11.710938 -10.507812 12.015625 -9.78125 C 12.328125 -9.050781 12.484375 -8.257812 12.484375 -7.40625 C 12.484375 -6.84375 12.425781 -6.226562 12.3125 -5.5625 L 3.34375 -5.5625 C 3.3125 -5.3125 3.296875 -5.101562 3.296875 -4.9375 C 3.296875 -3.820312 3.550781 -2.953125 4.0625 -2.328125 C 4.582031 -1.710938 5.226562 -1.40625 6 -1.40625 C 6.632812 -1.40625 7.304688 -1.625 8.015625 -2.0625 C 8.734375 -2.5 9.296875 -3.191406 9.703125 -4.140625 L 11.71875 -3.921875 C 11.3125 -2.703125 10.570312 -1.695312 9.5 -0.90625 C 8.425781 -0.113281 7.257812 0.28125 6 0.28125 C 5.101562 0.28125 4.289062 0.0820312 3.5625 -0.3125 C 2.832031 -0.71875 2.257812 -1.3125 1.84375 -2.09375 C 1.425781 -2.875 1.21875 -3.804688 1.21875 -4.890625 C 1.21875 -6.003906 1.453125 -7.144531 1.921875 -8.3125 C 2.390625 -9.476562 3.113281 -10.457031 4.09375 -11.25 C 5.070312 -12.050781 6.269531 -12.453125 7.6875 -12.453125 Z M 3.671875 -7.171875 L 10.5 -7.171875 L 10.53125 -7.640625 C 10.53125 -8.671875 10.273438 -9.460938 9.765625 -10.015625 C 9.253906 -10.578125 8.566406 -10.859375 7.703125 -10.859375 C 6.671875 -10.859375 5.820312 -10.492188 5.15625 -9.765625 C 4.488281 -9.046875 3.992188 -8.179688 3.671875 -7.171875 Z M 3.671875 -7.171875 "/></g></g></g><g fill="#191919" fill-opacity="1"><g transform="translate(267.418125, 112.538635)"><g><path d="M 8.3125 -12.453125 C 8.757812 -12.453125 9.28125 -12.304688 9.875 -12.015625 L 9 -10.078125 C 8.65625 -10.347656 8.265625 -10.484375 7.828125 -10.484375 C 7.421875 -10.484375 6.960938 -10.332031 6.453125 -10.03125 C 5.953125 -9.738281 5.484375 -9.242188 5.046875 -8.546875 C 4.816406 -8.160156 4.585938 -7.632812 4.359375 -6.96875 C 4.128906 -6.300781 3.9375 -5.609375 3.78125 -4.890625 L 2.75 0 L 0.78125 0 L 3.34375 -12.171875 L 5.171875 -12.171875 L 4.65625 -9.75 L 4.703125 -9.703125 C 5.234375 -10.597656 5.8125 -11.28125 6.4375 -11.75 C 7.0625 -12.21875 7.6875 -12.453125 8.3125 -12.453125 Z M 8.3125 -12.453125 "/></g></g></g><g fill="#191919" fill-opacity="1"><g transform="translate(275.242347, 112.538635)"><g/></g></g><g fill="#191919" fill-opacity="1"><g transform="translate(281.77428, 112.538635)"><g><path d="M 5.125 -10.859375 L 5.171875 -10.8125 C 5.722656 -11.34375 6.265625 -11.75 6.796875 -12.03125 C 7.335938 -12.3125 7.9375 -12.453125 8.59375 -12.453125 C 9.175781 -12.453125 9.769531 -12.304688 10.375 -12.015625 C 10.976562 -11.722656 11.492188 -11.207031 11.921875 -10.46875 C 12.359375 -9.726562 12.578125 -8.726562 12.578125 -7.46875 C 12.578125 -6 12.285156 -4.664062 11.703125 -3.46875 C 11.117188 -2.28125 10.367188 -1.359375 9.453125 -0.703125 C 8.535156 -0.046875 7.601562 0.28125 6.65625 0.28125 C 5.800781 0.28125 5.0625 0.0390625 4.4375 -0.4375 C 3.8125 -0.925781 3.367188 -1.546875 3.109375 -2.296875 L 3.0625 -2.296875 L 2.609375 0 L 0.78125 0 L 4.296875 -16.828125 L 6.375 -16.828125 Z M 3.859375 -4.984375 C 3.859375 -3.742188 4.101562 -2.835938 4.59375 -2.265625 C 5.082031 -1.691406 5.707031 -1.40625 6.46875 -1.40625 C 7.382812 -1.40625 8.148438 -1.765625 8.765625 -2.484375 C 9.378906 -3.210938 9.820312 -4.050781 10.09375 -5 C 10.363281 -5.957031 10.5 -6.804688 10.5 -7.546875 C 10.5 -8.546875 10.265625 -9.332031 9.796875 -9.90625 C 9.328125 -10.476562 8.707031 -10.765625 7.9375 -10.765625 C 7.050781 -10.765625 6.300781 -10.40625 5.6875 -9.6875 C 5.070312 -8.976562 4.613281 -8.15625 4.3125 -7.21875 C 4.007812 -6.289062 3.859375 -5.546875 3.859375 -4.984375 Z M 3.859375 -4.984375 "/></g></g></g><g fill="#191919" fill-opacity="1"><g transform="translate(294.838145, 112.538635)"><g><path d="M 3.828125 -4.8125 C 3.628906 -3.9375 3.53125 -3.296875 3.53125 -2.890625 C 3.53125 -2.421875 3.671875 -2.054688 3.953125 -1.796875 C 4.242188 -1.535156 4.664062 -1.40625 5.21875 -1.40625 C 6.34375 -1.40625 7.367188 -1.925781 8.296875 -2.96875 C 8.703125 -3.4375 9.023438 -3.984375 9.265625 -4.609375 C 9.515625 -5.234375 9.734375 -6 9.921875 -6.90625 L 11.015625 -12.171875 L 13.09375 -12.171875 L 10.546875 0 L 8.625 0 L 9.09375 -2.15625 L 9.046875 -2.203125 C 7.617188 -0.546875 6.140625 0.28125 4.609375 0.28125 C 3.765625 0.28125 3.023438 0.03125 2.390625 -0.46875 C 1.765625 -0.96875 1.453125 -1.648438 1.453125 -2.515625 C 1.453125 -2.816406 1.476562 -3.148438 1.53125 -3.515625 C 1.59375 -3.878906 1.703125 -4.421875 1.859375 -5.140625 L 3.3125 -12.171875 L 5.375 -12.171875 Z M 3.828125 -4.8125 "/></g></g></g><g fill="#191919" fill-opacity="1"><g transform="translate(307.902011, 112.538635)"><g><path d="M 9.234375 -12.453125 C 10.203125 -12.453125 10.972656 -12.1875 11.546875 -11.65625 C 12.117188 -11.125 12.40625 -10.410156 12.40625 -9.515625 C 12.40625 -9.023438 12.304688 -8.320312 12.109375 -7.40625 L 10.578125 0 L 8.484375 0 L 10.125 -7.828125 C 10.269531 -8.566406 10.34375 -9.082031 10.34375 -9.375 C 10.34375 -9.832031 10.1875 -10.175781 9.875 -10.40625 C 9.570312 -10.644531 9.1875 -10.765625 8.71875 -10.765625 C 8.039062 -10.765625 7.351562 -10.566406 6.65625 -10.171875 C 5.957031 -9.785156 5.390625 -9.191406 4.953125 -8.390625 C 4.566406 -7.640625 4.253906 -6.691406 4.015625 -5.546875 L 2.859375 0 L 0.78125 0 L 3.34375 -12.171875 L 5.21875 -12.171875 L 4.765625 -10.125 L 4.8125 -10.0625 C 5.457031 -10.726562 6.128906 -11.289062 6.828125 -11.75 C 7.523438 -12.21875 8.328125 -12.453125 9.234375 -12.453125 Z M 9.234375 -12.453125 "/></g></g></g><g fill="#191919" fill-opacity="1"><g transform="translate(320.965876, 112.538635)"><g><path d="M 10.578125 0 L 8.640625 0 L 9.03125 -1.71875 L 8.984375 -1.765625 C 7.816406 -0.398438 6.582031 0.28125 5.28125 0.28125 C 4.644531 0.28125 4.015625 0.117188 3.390625 -0.203125 C 2.773438 -0.523438 2.265625 -1.0625 1.859375 -1.8125 C 1.453125 -2.5625 1.25 -3.53125 1.25 -4.71875 C 1.25 -6.113281 1.519531 -7.398438 2.0625 -8.578125 C 2.613281 -9.765625 3.347656 -10.707031 4.265625 -11.40625 C 5.179688 -12.101562 6.164062 -12.453125 7.21875 -12.453125 C 8.71875 -12.453125 9.851562 -11.722656 10.625 -10.265625 L 10.671875 -10.265625 L 12.015625 -16.828125 L 14.078125 -16.828125 Z M 3.3125 -5.046875 C 3.3125 -3.921875 3.523438 -3.03125 3.953125 -2.375 C 4.390625 -1.726562 5.039062 -1.40625 5.90625 -1.40625 C 6.632812 -1.40625 7.3125 -1.695312 7.9375 -2.28125 C 8.570312 -2.875 9.070312 -3.648438 9.4375 -4.609375 C 9.800781 -5.578125 9.984375 -6.59375 9.984375 -7.65625 C 9.984375 -8.675781 9.71875 -9.445312 9.1875 -9.96875 C 8.664062 -10.5 8.039062 -10.765625 7.3125 -10.765625 C 6.445312 -10.765625 5.710938 -10.421875 5.109375 -9.734375 C 4.503906 -9.054688 4.050781 -8.265625 3.75 -7.359375 C 3.457031 -6.453125 3.3125 -5.679688 3.3125 -5.046875 Z M 3.3125 -5.046875 "/></g></g></g><g fill="#191919" fill-opacity="1"><g transform="translate(334.029741, 112.538635)"><g><path d="M 7.6875 -12.453125 C 8.90625 -12.453125 9.914062 -12.140625 10.71875 -11.515625 C 11.28125 -11.085938 11.710938 -10.507812 12.015625 -9.78125 C 12.328125 -9.050781 12.484375 -8.257812 12.484375 -7.40625 C 12.484375 -6.84375 12.425781 -6.226562 12.3125 -5.5625 L 3.34375 -5.5625 C 3.3125 -5.3125 3.296875 -5.101562 3.296875 -4.9375 C 3.296875 -3.820312 3.550781 -2.953125 4.0625 -2.328125 C 4.582031 -1.710938 5.226562 -1.40625 6 -1.40625 C 6.632812 -1.40625 7.304688 -1.625 8.015625 -2.0625 C 8.734375 -2.5 9.296875 -3.191406 9.703125 -4.140625 L 11.71875 -3.921875 C 11.3125 -2.703125 10.570312 -1.695312 9.5 -0.90625 C 8.425781 -0.113281 7.257812 0.28125 6 0.28125 C 5.101562 0.28125 4.289062 0.0820312 3.5625 -0.3125 C 2.832031 -0.71875 2.257812 -1.3125 1.84375 -2.09375 C 1.425781 -2.875 1.21875 -3.804688 1.21875 -4.890625 C 1.21875 -6.003906 1.453125 -7.144531 1.921875 -8.3125 C 2.390625 -9.476562 3.113281 -10.457031 4.09375 -11.25 C 5.070312 -12.050781 6.269531 -12.453125 7.6875 -12.453125 Z M 3.671875 -7.171875 L 10.5 -7.171875 L 10.53125 -7.640625 C 10.53125 -8.671875 10.273438 -9.460938 9.765625 -10.015625 C 9.253906 -10.578125 8.566406 -10.859375 7.703125 -10.859375 C 6.671875 -10.859375 5.820312 -10.492188 5.15625 -9.765625 C 4.488281 -9.046875 3.992188 -8.179688 3.671875 -7.171875 Z M 3.671875 -7.171875 "/></g></g></g><g fill="#191919" fill-opacity="1"><g transform="translate(347.093607, 112.538635)"><g><path d="M 6.953125 -12.453125 C 8.378906 -12.453125 9.519531 -12.109375 10.375 -11.421875 C 11.238281 -10.742188 11.679688 -9.800781 11.703125 -8.59375 L 9.640625 -8.484375 C 9.585938 -9.359375 9.273438 -9.972656 8.703125 -10.328125 C 8.128906 -10.679688 7.5 -10.859375 6.8125 -10.859375 C 6.125 -10.859375 5.570312 -10.695312 5.15625 -10.375 C 4.738281 -10.050781 4.53125 -9.695312 4.53125 -9.3125 C 4.53125 -8.863281 4.679688 -8.523438 4.984375 -8.296875 C 5.296875 -8.078125 5.859375 -7.785156 6.671875 -7.421875 C 7.691406 -6.984375 8.460938 -6.617188 8.984375 -6.328125 C 9.515625 -6.046875 9.953125 -5.664062 10.296875 -5.1875 C 10.648438 -4.71875 10.828125 -4.132812 10.828125 -3.4375 C 10.828125 -2.800781 10.644531 -2.203125 10.28125 -1.640625 C 9.914062 -1.078125 9.351562 -0.613281 8.59375 -0.25 C 7.84375 0.101562 6.9375 0.28125 5.875 0.28125 C 4.351562 0.28125 3.140625 -0.0859375 2.234375 -0.828125 C 1.335938 -1.578125 0.890625 -2.679688 0.890625 -4.140625 L 0.890625 -4.15625 L 2.984375 -4.296875 C 2.984375 -3.273438 3.25 -2.519531 3.78125 -2.03125 C 4.3125 -1.550781 5.050781 -1.3125 6 -1.3125 C 6.78125 -1.3125 7.429688 -1.476562 7.953125 -1.8125 C 8.472656 -2.15625 8.734375 -2.609375 8.734375 -3.171875 C 8.734375 -3.671875 8.535156 -4.066406 8.140625 -4.359375 C 7.742188 -4.660156 7.097656 -5.007812 6.203125 -5.40625 C 5.304688 -5.800781 4.628906 -6.128906 4.171875 -6.390625 C 3.710938 -6.660156 3.335938 -7 3.046875 -7.40625 C 2.753906 -7.8125 2.609375 -8.328125 2.609375 -8.953125 C 2.609375 -9.503906 2.753906 -10.046875 3.046875 -10.578125 C 3.347656 -11.109375 3.820312 -11.550781 4.46875 -11.90625 C 5.125 -12.269531 5.953125 -12.453125 6.953125 -12.453125 Z M 6.953125 -12.453125 "/></g></g></g><g fill="#191919" fill-opacity="1"><g transform="translate(358.841687, 112.538635)"><g><path d="M 4.375 -6.671875 C 4.414062 -6.085938 4.46875 -5.332031 4.53125 -4.40625 C 4.59375 -3.476562 4.625 -2.757812 4.625 -2.25 L 4.671875 -2.25 C 4.878906 -2.957031 5.0625 -3.53125 5.21875 -3.96875 C 5.382812 -4.40625 5.660156 -5.039062 6.046875 -5.875 L 8.9375 -12.171875 L 11.1875 -12.171875 L 11.578125 -6.109375 C 11.628906 -5.171875 11.65625 -4.238281 11.65625 -3.3125 C 11.664062 -3.113281 11.671875 -2.800781 11.671875 -2.375 L 11.71875 -2.375 C 11.976562 -3.1875 12.421875 -4.25 13.046875 -5.5625 L 16.1875 -12.171875 L 18.265625 -12.171875 L 12.3125 0 L 10.15625 0 L 9.6875 -7.140625 C 9.65625 -7.640625 9.640625 -8.507812 9.640625 -9.75 L 9.59375 -9.75 C 9.226562 -8.75 8.875 -7.878906 8.53125 -7.140625 L 5.28125 0 L 3.109375 0 L 1.828125 -12.171875 L 3.828125 -12.171875 Z M 4.375 -6.671875 "/></g></g></g><g fill="#191919" fill-opacity="1"><g transform="translate(375.805905, 112.538635)"><g><path d="M 7.6875 -12.453125 C 8.90625 -12.453125 9.914062 -12.140625 10.71875 -11.515625 C 11.28125 -11.085938 11.710938 -10.507812 12.015625 -9.78125 C 12.328125 -9.050781 12.484375 -8.257812 12.484375 -7.40625 C 12.484375 -6.84375 12.425781 -6.226562 12.3125 -5.5625 L 3.34375 -5.5625 C 3.3125 -5.3125 3.296875 -5.101562 3.296875 -4.9375 C 3.296875 -3.820312 3.550781 -2.953125 4.0625 -2.328125 C 4.582031 -1.710938 5.226562 -1.40625 6 -1.40625 C 6.632812 -1.40625 7.304688 -1.625 8.015625 -2.0625 C 8.734375 -2.5 9.296875 -3.191406 9.703125 -4.140625 L 11.71875 -3.921875 C 11.3125 -2.703125 10.570312 -1.695312 9.5 -0.90625 C 8.425781 -0.113281 7.257812 0.28125 6 0.28125 C 5.101562 0.28125 4.289062 0.0820312 3.5625 -0.3125 C 2.832031 -0.71875 2.257812 -1.3125 1.84375 -2.09375 C 1.425781 -2.875 1.21875 -3.804688 1.21875 -4.890625 C 1.21875 -6.003906 1.453125 -7.144531 1.921875 -8.3125 C 2.390625 -9.476562 3.113281 -10.457031 4.09375 -11.25 C 5.070312 -12.050781 6.269531 -12.453125 7.6875 -12.453125 Z M 3.671875 -7.171875 L 10.5 -7.171875 L 10.53125 -7.640625 C 10.53125 -8.671875 10.273438 -9.460938 9.765625 -10.015625 C 9.253906 -10.578125 8.566406 -10.859375 7.703125 -10.859375 C 6.671875 -10.859375 5.820312 -10.492188 5.15625 -9.765625 C 4.488281 -9.046875 3.992188 -8.179688 3.671875 -7.171875 Z M 3.671875 -7.171875 "/></g></g></g><g fill="#191919" fill-opacity="1"><g transform="translate(388.86977, 112.538635)"><g><path d="M 5.796875 -14.46875 L 3.71875 -14.46875 L 4.203125 -16.828125 L 6.296875 -16.828125 Z M 2.765625 0 L 0.703125 0 L 3.25 -12.171875 L 5.328125 -12.171875 Z M 2.765625 0 "/></g></g></g><g fill="#191919" fill-opacity="1"><g transform="translate(394.085918, 112.538635)"><g><path d="M 5.5 -12.171875 L 7.546875 -12.171875 L 7.21875 -10.578125 L 5.171875 -10.578125 L 3.734375 -3.734375 C 3.578125 -2.960938 3.5 -2.484375 3.5 -2.296875 C 3.5 -1.796875 3.804688 -1.546875 4.421875 -1.546875 C 4.796875 -1.546875 5.203125 -1.59375 5.640625 -1.6875 L 5.28125 0 C 4.8125 0.144531 4.328125 0.21875 3.828125 0.21875 C 3.210938 0.21875 2.640625 0.078125 2.109375 -0.203125 C 1.578125 -0.492188 1.3125 -0.972656 1.3125 -1.640625 C 1.3125 -1.878906 1.40625 -2.460938 1.59375 -3.390625 L 3.109375 -10.578125 L 1.453125 -10.578125 L 1.78125 -12.171875 L 3.4375 -12.171875 L 4.0625 -15.1875 L 6.4375 -16.609375 Z M 5.5 -12.171875 "/></g></g></g><g fill="#191919" fill-opacity="1"><g transform="translate(400.617851, 112.538635)"><g><path d="M 7.6875 -12.453125 C 8.90625 -12.453125 9.914062 -12.140625 10.71875 -11.515625 C 11.28125 -11.085938 11.710938 -10.507812 12.015625 -9.78125 C 12.328125 -9.050781 12.484375 -8.257812 12.484375 -7.40625 C 12.484375 -6.84375 12.425781 -6.226562 12.3125 -5.5625 L 3.34375 -5.5625 C 3.3125 -5.3125 3.296875 -5.101562 3.296875 -4.9375 C 3.296875 -3.820312 3.550781 -2.953125 4.0625 -2.328125 C 4.582031 -1.710938 5.226562 -1.40625 6 -1.40625 C 6.632812 -1.40625 7.304688 -1.625 8.015625 -2.0625 C 8.734375 -2.5 9.296875 -3.191406 9.703125 -4.140625 L 11.71875 -3.921875 C 11.3125 -2.703125 10.570312 -1.695312 9.5 -0.90625 C 8.425781 -0.113281 7.257812 0.28125 6 0.28125 C 5.101562 0.28125 4.289062 0.0820312 3.5625 -0.3125 C 2.832031 -0.71875 2.257812 -1.3125 1.84375 -2.09375 C 1.425781 -2.875 1.21875 -3.804688 1.21875 -4.890625 C 1.21875 -6.003906 1.453125 -7.144531 1.921875 -8.3125 C 2.390625 -9.476562 3.113281 -10.457031 4.09375 -11.25 C 5.070312 -12.050781 6.269531 -12.453125 7.6875 -12.453125 Z M 3.671875 -7.171875 L 10.5 -7.171875 L 10.53125 -7.640625 C 10.53125 -8.671875 10.273438 -9.460938 9.765625 -10.015625 C 9.253906 -10.578125 8.566406 -10.859375 7.703125 -10.859375 C 6.671875 -10.859375 5.820312 -10.492188 5.15625 -9.765625 C 4.488281 -9.046875 3.992188 -8.179688 3.671875 -7.171875 Z M 3.671875 -7.171875 "/></g></g></g><g fill="#191919" fill-opacity="1"><g transform="translate(413.681716, 112.538635)"><g/></g></g><g fill="#191919" fill-opacity="1"><g transform="translate(420.213649, 112.538635)"><g><path d="M 11.0625 -17.109375 C 12.519531 -17.109375 13.78125 -16.78125 14.84375 -16.125 C 15.914062 -15.476562 16.738281 -14.585938 17.3125 -13.453125 C 17.882812 -12.316406 18.171875 -11.019531 18.171875 -9.5625 C 18.171875 -7.78125 17.773438 -6.132812 16.984375 -4.625 C 16.191406 -3.125 15.109375 -1.929688 13.734375 -1.046875 C 12.359375 -0.160156 10.851562 0.28125 9.21875 0.28125 C 7.769531 0.28125 6.515625 -0.0507812 5.453125 -0.71875 C 4.390625 -1.382812 3.570312 -2.273438 3 -3.390625 C 2.425781 -4.515625 2.140625 -5.742188 2.140625 -7.078125 C 2.140625 -9.066406 2.546875 -10.820312 3.359375 -12.34375 C 4.171875 -13.875 5.257812 -15.050781 6.625 -15.875 C 7.988281 -16.695312 9.46875 -17.109375 11.0625 -17.109375 Z M 4.375 -6.953125 C 4.375 -5.828125 4.609375 -4.859375 5.078125 -4.046875 C 5.554688 -3.242188 6.179688 -2.628906 6.953125 -2.203125 C 7.722656 -1.785156 8.53125 -1.578125 9.375 -1.578125 C 10.625 -1.578125 11.742188 -1.96875 12.734375 -2.75 C 13.734375 -3.53125 14.515625 -4.546875 15.078125 -5.796875 C 15.648438 -7.054688 15.9375 -8.375 15.9375 -9.75 C 15.9375 -10.875 15.710938 -11.851562 15.265625 -12.6875 C 14.816406 -13.519531 14.21875 -14.15625 13.46875 -14.59375 C 12.726562 -15.03125 11.921875 -15.25 11.046875 -15.25 C 9.960938 -15.25 8.90625 -14.925781 7.875 -14.28125 C 6.851562 -13.644531 6.015625 -12.695312 5.359375 -11.4375 C 4.703125 -10.1875 4.375 -8.691406 4.375 -6.953125 Z M 4.375 -6.953125 "/></g></g></g><g fill="#191919" fill-opacity="1"><g transform="translate(438.493651, 112.538635)"><g><path d="M 9.234375 -12.453125 C 10.203125 -12.453125 10.972656 -12.1875 11.546875 -11.65625 C 12.117188 -11.125 12.40625 -10.410156 12.40625 -9.515625 C 12.40625 -9.023438 12.304688 -8.320312 12.109375 -7.40625 L 10.578125 0 L 8.484375 0 L 10.125 -7.828125 C 10.269531 -8.566406 10.34375 -9.082031 10.34375 -9.375 C 10.34375 -9.832031 10.1875 -10.175781 9.875 -10.40625 C 9.570312 -10.644531 9.1875 -10.765625 8.71875 -10.765625 C 8.039062 -10.765625 7.351562 -10.566406 6.65625 -10.171875 C 5.957031 -9.785156 5.390625 -9.191406 4.953125 -8.390625 C 4.566406 -7.640625 4.253906 -6.691406 4.015625 -5.546875 L 2.859375 0 L 0.78125 0 L 3.34375 -12.171875 L 5.21875 -12.171875 L 4.765625 -10.125 L 4.8125 -10.0625 C 5.457031 -10.726562 6.128906 -11.289062 6.828125 -11.75 C 7.523438 -12.21875 8.328125 -12.453125 9.234375 -12.453125 Z M 9.234375 -12.453125 "/></g></g></g><g fill="#191919" fill-opacity="1"><g transform="translate(451.557516, 112.538635)"><g><path d="M 2.703125 0 L 0.609375 0 L 4.140625 -16.828125 L 6.203125 -16.828125 Z M 2.703125 0 "/></g></g></g><g fill="#191919" fill-opacity="1"><g transform="translate(456.773664, 112.538635)"><g><path d="M 5.796875 -14.46875 L 3.71875 -14.46875 L 4.203125 -16.828125 L 6.296875 -16.828125 Z M 2.765625 0 L 0.703125 0 L 3.25 -12.171875 L 5.328125 -12.171875 Z M 2.765625 0 "/></g></g></g><g fill="#191919" fill-opacity="1"><g transform="translate(461.989812, 112.538635)"><g><path d="M 9.234375 -12.453125 C 10.203125 -12.453125 10.972656 -12.1875 11.546875 -11.65625 C 12.117188 -11.125 12.40625 -10.410156 12.40625 -9.515625 C 12.40625 -9.023438 12.304688 -8.320312 12.109375 -7.40625 L 10.578125 0 L 8.484375 0 L 10.125 -7.828125 C 10.269531 -8.566406 10.34375 -9.082031 10.34375 -9.375 C 10.34375 -9.832031 10.1875 -10.175781 9.875 -10.40625 C 9.570312 -10.644531 9.1875 -10.765625 8.71875 -10.765625 C 8.039062 -10.765625 7.351562 -10.566406 6.65625 -10.171875 C 5.957031 -9.785156 5.390625 -9.191406 4.953125 -8.390625 C 4.566406 -7.640625 4.253906 -6.691406 4.015625 -5.546875 L 2.859375 0 L 0.78125 0 L 3.34375 -12.171875 L 5.21875 -12.171875 L 4.765625 -10.125 L 4.8125 -10.0625 C 5.457031 -10.726562 6.128906 -11.289062 6.828125 -11.75 C 7.523438 -12.21875 8.328125 -12.453125 9.234375 -12.453125 Z M 9.234375 -12.453125 "/></g></g></g><g fill="#191919" fill-opacity="1"><g transform="translate(475.053678, 112.538635)"><g><path d="M 7.6875 -12.453125 C 8.90625 -12.453125 9.914062 -12.140625 10.71875 -11.515625 C 11.28125 -11.085938 11.710938 -10.507812 12.015625 -9.78125 C 12.328125 -9.050781 12.484375 -8.257812 12.484375 -7.40625 C 12.484375 -6.84375 12.425781 -6.226562 12.3125 -5.5625 L 3.34375 -5.5625 C 3.3125 -5.3125 3.296875 -5.101562 3.296875 -4.9375 C 3.296875 -3.820312 3.550781 -2.953125 4.0625 -2.328125 C 4.582031 -1.710938 5.226562 -1.40625 6 -1.40625 C 6.632812 -1.40625 7.304688 -1.625 8.015625 -2.0625 C 8.734375 -2.5 9.296875 -3.191406 9.703125 -4.140625 L 11.71875 -3.921875 C 11.3125 -2.703125 10.570312 -1.695312 9.5 -0.90625 C 8.425781 -0.113281 7.257812 0.28125 6 0.28125 C 5.101562 0.28125 4.289062 0.0820312 3.5625 -0.3125 C 2.832031 -0.71875 2.257812 -1.3125 1.84375 -2.09375 C 1.425781 -2.875 1.21875 -3.804688 1.21875 -4.890625 C 1.21875 -6.003906 1.453125 -7.144531 1.921875 -8.3125 C 2.390625 -9.476562 3.113281 -10.457031 4.09375 -11.25 C 5.070312 -12.050781 6.269531 -12.453125 7.6875 -12.453125 Z M 3.671875 -7.171875 L 10.5 -7.171875 L 10.53125 -7.640625 C 10.53125 -8.671875 10.273438 -9.460938 9.765625 -10.015625 C 9.253906 -10.578125 8.566406 -10.859375 7.703125 -10.859375 C 6.671875 -10.859375 5.820312 -10.492188 5.15625 -9.765625 C 4.488281 -9.046875 3.992188 -8.179688 3.671875 -7.171875 Z M 3.671875 -7.171875 "/></g></g></g><g fill="#191919" fill-opacity="1"><g transform="translate(488.117543, 112.538635)"><g><path d="M 7.421875 -5.046875 L 1.078125 -5.046875 L 1.53125 -7.125 L 7.84375 -7.125 Z M 7.421875 -5.046875 "/></g></g></g><g fill="#191919" fill-opacity="1"><g transform="translate(495.941777, 112.538635)"><g><path d="M 9.609375 -17.109375 C 11.554688 -17.109375 13.054688 -16.660156 14.109375 -15.765625 C 15.171875 -14.867188 15.71875 -13.632812 15.75 -12.0625 L 13.5625 -11.890625 C 13.539062 -13.066406 13.15625 -13.921875 12.40625 -14.453125 C 11.664062 -14.984375 10.703125 -15.25 9.515625 -15.25 C 8.648438 -15.25 7.832031 -15.0625 7.0625 -14.6875 C 6.289062 -14.3125 5.90625 -13.660156 5.90625 -12.734375 C 5.90625 -12.265625 6.019531 -11.875 6.25 -11.5625 C 6.488281 -11.25 6.832031 -10.960938 7.28125 -10.703125 C 7.738281 -10.441406 8.445312 -10.109375 9.40625 -9.703125 C 10.75 -9.128906 11.753906 -8.648438 12.421875 -8.265625 C 13.085938 -7.878906 13.617188 -7.398438 14.015625 -6.828125 C 14.410156 -6.253906 14.609375 -5.53125 14.609375 -4.65625 C 14.609375 -3.75 14.34375 -2.914062 13.8125 -2.15625 C 13.28125 -1.40625 12.519531 -0.8125 11.53125 -0.375 C 10.550781 0.0625 9.414062 0.28125 8.125 0.28125 C 7.03125 0.28125 6.023438 0.140625 5.109375 -0.140625 C 4.191406 -0.421875 3.453125 -0.859375 2.890625 -1.453125 C 2.054688 -2.328125 1.640625 -3.660156 1.640625 -5.453125 L 3.828125 -5.640625 L 3.8125 -5.046875 C 3.8125 -4.078125 4.148438 -3.253906 4.828125 -2.578125 C 5.503906 -1.910156 6.628906 -1.578125 8.203125 -1.578125 C 9.078125 -1.578125 9.828125 -1.710938 10.453125 -1.984375 C 11.078125 -2.253906 11.546875 -2.609375 11.859375 -3.046875 C 12.179688 -3.492188 12.34375 -3.972656 12.34375 -4.484375 C 12.34375 -4.972656 12.210938 -5.378906 11.953125 -5.703125 C 11.703125 -6.035156 11.316406 -6.347656 10.796875 -6.640625 C 10.273438 -6.941406 9.472656 -7.328125 8.390625 -7.796875 C 7.359375 -8.253906 6.53125 -8.664062 5.90625 -9.03125 C 5.289062 -9.40625 4.769531 -9.882812 4.34375 -10.46875 C 3.925781 -11.050781 3.71875 -11.769531 3.71875 -12.625 C 3.71875 -13.539062 3.96875 -14.335938 4.46875 -15.015625 C 4.96875 -15.691406 5.660156 -16.207031 6.546875 -16.5625 C 7.441406 -16.925781 8.460938 -17.109375 9.609375 -17.109375 Z M 9.609375 -17.109375 "/></g></g></g><g fill="#191919" fill-opacity="1"><g transform="translate(511.613704, 112.538635)"><g><path d="M 7.6875 -12.453125 C 8.90625 -12.453125 9.914062 -12.140625 10.71875 -11.515625 C 11.28125 -11.085938 11.710938 -10.507812 12.015625 -9.78125 C 12.328125 -9.050781 12.484375 -8.257812 12.484375 -7.40625 C 12.484375 -6.84375 12.425781 -6.226562 12.3125 -5.5625 L 3.34375 -5.5625 C 3.3125 -5.3125 3.296875 -5.101562 3.296875 -4.9375 C 3.296875 -3.820312 3.550781 -2.953125 4.0625 -2.328125 C 4.582031 -1.710938 5.226562 -1.40625 6 -1.40625 C 6.632812 -1.40625 7.304688 -1.625 8.015625 -2.0625 C 8.734375 -2.5 9.296875 -3.191406 9.703125 -4.140625 L 11.71875 -3.921875 C 11.3125 -2.703125 10.570312 -1.695312 9.5 -0.90625 C 8.425781 -0.113281 7.257812 0.28125 6 0.28125 C 5.101562 0.28125 4.289062 0.0820312 3.5625 -0.3125 C 2.832031 -0.71875 2.257812 -1.3125 1.84375 -2.09375 C 1.425781 -2.875 1.21875 -3.804688 1.21875 -4.890625 C 1.21875 -6.003906 1.453125 -7.144531 1.921875 -8.3125 C 2.390625 -9.476562 3.113281 -10.457031 4.09375 -11.25 C 5.070312 -12.050781 6.269531 -12.453125 7.6875 -12.453125 Z M 3.671875 -7.171875 L 10.5 -7.171875 L 10.53125 -7.640625 C 10.53125 -8.671875 10.273438 -9.460938 9.765625 -10.015625 C 9.253906 -10.578125 8.566406 -10.859375 7.703125 -10.859375 C 6.671875 -10.859375 5.820312 -10.492188 5.15625 -9.765625 C 4.488281 -9.046875 3.992188 -8.179688 3.671875 -7.171875 Z M 3.671875 -7.171875 "/></g></g></g><g fill="#191919" fill-opacity="1"><g transform="translate(524.67757, 112.538635)"><g><path d="M 8.3125 -12.453125 C 8.757812 -12.453125 9.28125 -12.304688 9.875 -12.015625 L 9 -10.078125 C 8.65625 -10.347656 8.265625 -10.484375 7.828125 -10.484375 C 7.421875 -10.484375 6.960938 -10.332031 6.453125 -10.03125 C 5.953125 -9.738281 5.484375 -9.242188 5.046875 -8.546875 C 4.816406 -8.160156 4.585938 -7.632812 4.359375 -6.96875 C 4.128906 -6.300781 3.9375 -5.609375 3.78125 -4.890625 L 2.75 0 L 0.78125 0 L 3.34375 -12.171875 L 5.171875 -12.171875 L 4.65625 -9.75 L 4.703125 -9.703125 C 5.234375 -10.597656 5.8125 -11.28125 6.4375 -11.75 C 7.0625 -12.21875 7.6875 -12.453125 8.3125 -12.453125 Z M 8.3125 -12.453125 "/></g></g></g><g fill="#191919" fill-opacity="1"><g transform="translate(532.501803, 112.538635)"><g><path d="M 4.90625 -5.46875 C 5.019531 -4.78125 5.113281 -4.070312 5.1875 -3.34375 C 5.269531 -2.613281 5.3125 -2.125 5.3125 -1.875 L 5.359375 -1.875 C 6.046875 -3.332031 6.585938 -4.398438 6.984375 -5.078125 L 10.921875 -12.171875 L 13.140625 -12.171875 L 6.15625 0 L 3.859375 0 L 1.859375 -12.171875 L 3.875 -12.171875 Z M 4.90625 -5.46875 "/></g></g></g><g fill="#191919" fill-opacity="1"><g transform="translate(544.249895, 112.538635)"><g><path d="M 5.796875 -14.46875 L 3.71875 -14.46875 L 4.203125 -16.828125 L 6.296875 -16.828125 Z M 2.765625 0 L 0.703125 0 L 3.25 -12.171875 L 5.328125 -12.171875 Z M 2.765625 0 "/></g></g></g><g fill="#191919" fill-opacity="1"><g transform="translate(549.466044, 112.538635)"><g><path d="M 7.734375 -12.453125 C 9.035156 -12.453125 10.070312 -12.082031 10.84375 -11.34375 C 11.625 -10.613281 12.015625 -9.632812 12.015625 -8.40625 L 9.9375 -8.296875 C 9.9375 -9.078125 9.722656 -9.679688 9.296875 -10.109375 C 8.878906 -10.546875 8.296875 -10.765625 7.546875 -10.765625 C 6.492188 -10.765625 5.660156 -10.378906 5.046875 -9.609375 C 4.441406 -8.835938 4.019531 -7.96875 3.78125 -7 C 3.550781 -6.03125 3.4375 -5.175781 3.4375 -4.4375 C 3.4375 -3.289062 3.679688 -2.484375 4.171875 -2.015625 C 4.660156 -1.546875 5.203125 -1.3125 5.796875 -1.3125 C 6.617188 -1.3125 7.316406 -1.617188 7.890625 -2.234375 C 8.472656 -2.847656 8.90625 -3.582031 9.1875 -4.4375 L 11.28125 -4.234375 C 10.757812 -2.722656 10.015625 -1.59375 9.046875 -0.84375 C 8.085938 -0.09375 7 0.28125 5.78125 0.28125 C 4.476562 0.28125 3.40625 -0.132812 2.5625 -0.96875 C 1.726562 -1.8125 1.3125 -3.015625 1.3125 -4.578125 C 1.3125 -5.722656 1.519531 -6.898438 1.9375 -8.109375 C 2.351562 -9.316406 3.039062 -10.34375 4 -11.1875 C 4.96875 -12.03125 6.210938 -12.453125 7.734375 -12.453125 Z M 7.734375 -12.453125 "/></g></g></g><g fill="#191919" fill-opacity="1"><g transform="translate(561.214113, 112.538635)"><g><path d="M 7.6875 -12.453125 C 8.90625 -12.453125 9.914062 -12.140625 10.71875 -11.515625 C 11.28125 -11.085938 11.710938 -10.507812 12.015625 -9.78125 C 12.328125 -9.050781 12.484375 -8.257812 12.484375 -7.40625 C 12.484375 -6.84375 12.425781 -6.226562 12.3125 -5.5625 L 3.34375 -5.5625 C 3.3125 -5.3125 3.296875 -5.101562 3.296875 -4.9375 C 3.296875 -3.820312 3.550781 -2.953125 4.0625 -2.328125 C 4.582031 -1.710938 5.226562 -1.40625 6 -1.40625 C 6.632812 -1.40625 7.304688 -1.625 8.015625 -2.0625 C 8.734375 -2.5 9.296875 -3.191406 9.703125 -4.140625 L 11.71875 -3.921875 C 11.3125 -2.703125 10.570312 -1.695312 9.5 -0.90625 C 8.425781 -0.113281 7.257812 0.28125 6 0.28125 C 5.101562 0.28125 4.289062 0.0820312 3.5625 -0.3125 C 2.832031 -0.71875 2.257812 -1.3125 1.84375 -2.09375 C 1.425781 -2.875 1.21875 -3.804688 1.21875 -4.890625 C 1.21875 -6.003906 1.453125 -7.144531 1.921875 -8.3125 C 2.390625 -9.476562 3.113281 -10.457031 4.09375 -11.25 C 5.070312 -12.050781 6.269531 -12.453125 7.6875 -12.453125 Z M 3.671875 -7.171875 L 10.5 -7.171875 L 10.53125 -7.640625 C 10.53125 -8.671875 10.273438 -9.460938 9.765625 -10.015625 C 9.253906 -10.578125 8.566406 -10.859375 7.703125 -10.859375 C 6.671875 -10.859375 5.820312 -10.492188 5.15625 -9.765625 C 4.488281 -9.046875 3.992188 -8.179688 3.671875 -7.171875 Z M 3.671875 -7.171875 "/></g></g></g><g fill="#191919" fill-opacity="1"><g transform="translate(574.277978, 112.538635)"><g/></g></g><g fill="#191919" fill-opacity="1"><g transform="translate(580.809922, 112.538635)"><g><path d="M 7.265625 -17.109375 C 7.578125 -17.109375 7.941406 -17.070312 8.359375 -17 C 8.785156 -16.925781 9.1875 -16.851562 9.5625 -16.78125 L 9.1875 -14.96875 C 9.125 -14.988281 8.90625 -15.039062 8.53125 -15.125 C 8.15625 -15.207031 7.785156 -15.25 7.421875 -15.25 C 6.941406 -15.25 6.609375 -15.125 6.421875 -14.875 C 6.242188 -14.625 6.09375 -14.203125 5.96875 -13.609375 L 5.65625 -12.171875 L 7.984375 -12.171875 L 7.65625 -10.578125 L 5.328125 -10.578125 L 3.125 0 L 1.0625 0 L 3.265625 -10.578125 L 1.40625 -10.578125 L 1.734375 -12.171875 L 3.59375 -12.171875 L 4 -14.140625 C 4.195312 -15.148438 4.519531 -15.894531 4.96875 -16.375 C 5.414062 -16.863281 6.179688 -17.109375 7.265625 -17.109375 Z M 7.265625 -17.109375 "/></g></g></g><g fill="#191919" fill-opacity="1"><g transform="translate(587.341843, 112.538635)"><g><path d="M 3.828125 -4.8125 C 3.628906 -3.9375 3.53125 -3.296875 3.53125 -2.890625 C 3.53125 -2.421875 3.671875 -2.054688 3.953125 -1.796875 C 4.242188 -1.535156 4.664062 -1.40625 5.21875 -1.40625 C 6.34375 -1.40625 7.367188 -1.925781 8.296875 -2.96875 C 8.703125 -3.4375 9.023438 -3.984375 9.265625 -4.609375 C 9.515625 -5.234375 9.734375 -6 9.921875 -6.90625 L 11.015625 -12.171875 L 13.09375 -12.171875 L 10.546875 0 L 8.625 0 L 9.09375 -2.15625 L 9.046875 -2.203125 C 7.617188 -0.546875 6.140625 0.28125 4.609375 0.28125 C 3.765625 0.28125 3.023438 0.03125 2.390625 -0.46875 C 1.765625 -0.96875 1.453125 -1.648438 1.453125 -2.515625 C 1.453125 -2.816406 1.476562 -3.148438 1.53125 -3.515625 C 1.59375 -3.878906 1.703125 -4.421875 1.859375 -5.140625 L 3.3125 -12.171875 L 5.375 -12.171875 Z M 7.46875 -14.078125 L 5.296875 -14.078125 L 5.796875 -16.421875 L 7.953125 -16.421875 Z M 11.703125 -14.078125 L 9.53125 -14.078125 L 10.03125 -16.421875 L 12.1875 -16.421875 Z M 11.703125 -14.078125 "/></g></g></g><g fill="#191919" fill-opacity="1"><g transform="translate(600.405708, 112.538635)"><g><path d="M 8.3125 -12.453125 C 8.757812 -12.453125 9.28125 -12.304688 9.875 -12.015625 L 9 -10.078125 C 8.65625 -10.347656 8.265625 -10.484375 7.828125 -10.484375 C 7.421875 -10.484375 6.960938 -10.332031 6.453125 -10.03125 C 5.953125 -9.738281 5.484375 -9.242188 5.046875 -8.546875 C 4.816406 -8.160156 4.585938 -7.632812 4.359375 -6.96875 C 4.128906 -6.300781 3.9375 -5.609375 3.78125 -4.890625 L 2.75 0 L 0.78125 0 L 3.34375 -12.171875 L 5.171875 -12.171875 L 4.65625 -9.75 L 4.703125 -9.703125 C 5.234375 -10.597656 5.8125 -11.28125 6.4375 -11.75 C 7.0625 -12.21875 7.6875 -12.453125 8.3125 -12.453125 Z M 8.3125 -12.453125 "/></g></g></g><g fill="#191919" fill-opacity="1"><g transform="translate(608.229919, 112.538635)"><g/></g></g><g fill="#191919" fill-opacity="1"><g transform="translate(614.76184, 112.538635)"><g><path d="M 5.796875 -14.46875 L 3.71875 -14.46875 L 4.203125 -16.828125 L 6.296875 -16.828125 Z M 2.765625 0 L 0.703125 0 L 3.25 -12.171875 L 5.328125 -12.171875 Z M 2.765625 0 "/></g></g></g><g fill="#191919" fill-opacity="1"><g transform="translate(619.977988, 112.538635)"><g><path d="M 5.03125 -10.40625 L 5.078125 -10.359375 C 5.785156 -11.078125 6.476562 -11.601562 7.15625 -11.9375 C 7.832031 -12.28125 8.535156 -12.453125 9.265625 -12.453125 C 10.296875 -12.453125 11.082031 -12.171875 11.625 -11.609375 C 12.164062 -11.054688 12.4375 -10.375 12.4375 -9.5625 C 12.4375 -9.15625 12.300781 -8.296875 12.03125 -6.984375 L 10.578125 0 L 8.484375 0 L 9.984375 -7.125 C 10.234375 -8.375 10.359375 -9.132812 10.359375 -9.40625 C 10.359375 -9.789062 10.21875 -10.113281 9.9375 -10.375 C 9.65625 -10.632812 9.265625 -10.765625 8.765625 -10.765625 C 8.054688 -10.765625 7.34375 -10.570312 6.625 -10.1875 C 5.914062 -9.800781 5.359375 -9.222656 4.953125 -8.453125 C 4.578125 -7.753906 4.25 -6.707031 3.96875 -5.3125 L 2.859375 0 L 0.78125 0 L 4.296875 -16.828125 L 6.375 -16.828125 Z M 5.03125 -10.40625 "/></g></g></g><g fill="#191919" fill-opacity="1"><g transform="translate(633.041854, 112.538635)"><g><path d="M 8.3125 -12.453125 C 8.757812 -12.453125 9.28125 -12.304688 9.875 -12.015625 L 9 -10.078125 C 8.65625 -10.347656 8.265625 -10.484375 7.828125 -10.484375 C 7.421875 -10.484375 6.960938 -10.332031 6.453125 -10.03125 C 5.953125 -9.738281 5.484375 -9.242188 5.046875 -8.546875 C 4.816406 -8.160156 4.585938 -7.632812 4.359375 -6.96875 C 4.128906 -6.300781 3.9375 -5.609375 3.78125 -4.890625 L 2.75 0 L 0.78125 0 L 3.34375 -12.171875 L 5.171875 -12.171875 L 4.65625 -9.75 L 4.703125 -9.703125 C 5.234375 -10.597656 5.8125 -11.28125 6.4375 -11.75 C 7.0625 -12.21875 7.6875 -12.453125 8.3125 -12.453125 Z M 8.3125 -12.453125 "/></g></g></g><g fill="#191919" fill-opacity="1"><g transform="translate(640.866087, 112.538635)"><g><path d="M 7.6875 -12.453125 C 8.90625 -12.453125 9.914062 -12.140625 10.71875 -11.515625 C 11.28125 -11.085938 11.710938 -10.507812 12.015625 -9.78125 C 12.328125 -9.050781 12.484375 -8.257812 12.484375 -7.40625 C 12.484375 -6.84375 12.425781 -6.226562 12.3125 -5.5625 L 3.34375 -5.5625 C 3.3125 -5.3125 3.296875 -5.101562 3.296875 -4.9375 C 3.296875 -3.820312 3.550781 -2.953125 4.0625 -2.328125 C 4.582031 -1.710938 5.226562 -1.40625 6 -1.40625 C 6.632812 -1.40625 7.304688 -1.625 8.015625 -2.0625 C 8.734375 -2.5 9.296875 -3.191406 9.703125 -4.140625 L 11.71875 -3.921875 C 11.3125 -2.703125 10.570312 -1.695312 9.5 -0.90625 C 8.425781 -0.113281 7.257812 0.28125 6 0.28125 C 5.101562 0.28125 4.289062 0.0820312 3.5625 -0.3125 C 2.832031 -0.71875 2.257812 -1.3125 1.84375 -2.09375 C 1.425781 -2.875 1.21875 -3.804688 1.21875 -4.890625 C 1.21875 -6.003906 1.453125 -7.144531 1.921875 -8.3125 C 2.390625 -9.476562 3.113281 -10.457031 4.09375 -11.25 C 5.070312 -12.050781 6.269531 -12.453125 7.6875 -12.453125 Z M 3.671875 -7.171875 L 10.5 -7.171875 L 10.53125 -7.640625 C 10.53125 -8.671875 10.273438 -9.460938 9.765625 -10.015625 C 9.253906 -10.578125 8.566406 -10.859375 7.703125 -10.859375 C 6.671875 -10.859375 5.820312 -10.492188 5.15625 -9.765625 C 4.488281 -9.046875 3.992188 -8.179688 3.671875 -7.171875 Z M 3.671875 -7.171875 "/></g></g></g><g fill="#191919" fill-opacity="1"><g transform="translate(653.929975, 112.538635)"><g/></g></g><g fill="#191919" fill-opacity="1"><g transform="translate(660.461896, 112.538635)"><g><path d="M 15.234375 -15.71875 C 16.015625 -14.875 16.40625 -13.863281 16.40625 -12.6875 C 16.40625 -11.820312 16.203125 -10.976562 15.796875 -10.15625 C 15.390625 -9.34375 14.835938 -8.648438 14.140625 -8.078125 C 13.609375 -7.660156 12.851562 -7.34375 11.875 -7.125 C 10.894531 -6.914062 9.945312 -6.8125 9.03125 -6.8125 L 4.703125 -6.8125 L 3.265625 0 L 1.015625 0 L 4.53125 -16.828125 L 11.71875 -16.828125 C 12.570312 -16.828125 13.28125 -16.738281 13.84375 -16.5625 C 14.40625 -16.394531 14.867188 -16.113281 15.234375 -15.71875 Z M 5.09375 -8.71875 L 8.9375 -8.71875 C 9.875 -8.71875 10.65625 -8.800781 11.28125 -8.96875 C 11.90625 -9.144531 12.421875 -9.414062 12.828125 -9.78125 C 13.722656 -10.570312 14.171875 -11.523438 14.171875 -12.640625 C 14.171875 -13.296875 14.046875 -13.789062 13.796875 -14.125 C 13.546875 -14.46875 13.203125 -14.691406 12.765625 -14.796875 C 12.328125 -14.910156 11.753906 -14.96875 11.046875 -14.96875 L 6.390625 -14.96875 Z M 5.09375 -8.71875 "/></g></g></g><g fill="#191919" fill-opacity="1"><g transform="translate(676.133801, 112.538635)"><g><path d="M 7.78125 -12.453125 C 9.25 -12.453125 10.429688 -12 11.328125 -11.09375 C 12.234375 -10.1875 12.6875 -8.941406 12.6875 -7.359375 C 12.6875 -5.878906 12.390625 -4.5625 11.796875 -3.40625 C 11.210938 -2.25 10.421875 -1.34375 9.421875 -0.6875 C 8.429688 -0.0390625 7.335938 0.28125 6.140625 0.28125 C 5.222656 0.28125 4.382812 0.09375 3.625 -0.28125 C 2.863281 -0.65625 2.257812 -1.210938 1.8125 -1.953125 C 1.375 -2.703125 1.15625 -3.601562 1.15625 -4.65625 C 1.15625 -6.050781 1.414062 -7.34375 1.9375 -8.53125 C 2.457031 -9.71875 3.21875 -10.664062 4.21875 -11.375 C 5.226562 -12.09375 6.414062 -12.453125 7.78125 -12.453125 Z M 3.21875 -4.84375 C 3.21875 -3.570312 3.519531 -2.664062 4.125 -2.125 C 4.726562 -1.582031 5.40625 -1.3125 6.15625 -1.3125 C 7.238281 -1.3125 8.160156 -1.765625 8.921875 -2.671875 C 9.679688 -3.585938 10.191406 -4.65625 10.453125 -5.875 C 10.566406 -6.3125 10.625 -6.8125 10.625 -7.375 C 10.625 -8.3125 10.382812 -9.125 9.90625 -9.8125 C 9.425781 -10.507812 8.6875 -10.859375 7.6875 -10.859375 C 6.757812 -10.859375 5.953125 -10.546875 5.265625 -9.921875 C 4.585938 -9.304688 4.078125 -8.53125 3.734375 -7.59375 C 3.390625 -6.65625 3.21875 -5.738281 3.21875 -4.84375 Z M 3.21875 -4.84375 "/></g></g></g><g fill="#191919" fill-opacity="1"><g transform="translate(689.197643, 112.538635)"><g><path d="M 6.953125 -12.453125 C 8.378906 -12.453125 9.519531 -12.109375 10.375 -11.421875 C 11.238281 -10.742188 11.679688 -9.800781 11.703125 -8.59375 L 9.640625 -8.484375 C 9.585938 -9.359375 9.273438 -9.972656 8.703125 -10.328125 C 8.128906 -10.679688 7.5 -10.859375 6.8125 -10.859375 C 6.125 -10.859375 5.570312 -10.695312 5.15625 -10.375 C 4.738281 -10.050781 4.53125 -9.695312 4.53125 -9.3125 C 4.53125 -8.863281 4.679688 -8.523438 4.984375 -8.296875 C 5.296875 -8.078125 5.859375 -7.785156 6.671875 -7.421875 C 7.691406 -6.984375 8.460938 -6.617188 8.984375 -6.328125 C 9.515625 -6.046875 9.953125 -5.664062 10.296875 -5.1875 C 10.648438 -4.71875 10.828125 -4.132812 10.828125 -3.4375 C 10.828125 -2.800781 10.644531 -2.203125 10.28125 -1.640625 C 9.914062 -1.078125 9.351562 -0.613281 8.59375 -0.25 C 7.84375 0.101562 6.9375 0.28125 5.875 0.28125 C 4.351562 0.28125 3.140625 -0.0859375 2.234375 -0.828125 C 1.335938 -1.578125 0.890625 -2.679688 0.890625 -4.140625 L 0.890625 -4.15625 L 2.984375 -4.296875 C 2.984375 -3.273438 3.25 -2.519531 3.78125 -2.03125 C 4.3125 -1.550781 5.050781 -1.3125 6 -1.3125 C 6.78125 -1.3125 7.429688 -1.476562 7.953125 -1.8125 C 8.472656 -2.15625 8.734375 -2.609375 8.734375 -3.171875 C 8.734375 -3.671875 8.535156 -4.066406 8.140625 -4.359375 C 7.742188 -4.660156 7.097656 -5.007812 6.203125 -5.40625 C 5.304688 -5.800781 4.628906 -6.128906 4.171875 -6.390625 C 3.710938 -6.660156 3.335938 -7 3.046875 -7.40625 C 2.753906 -7.8125 2.609375 -8.328125 2.609375 -8.953125 C 2.609375 -9.503906 2.753906 -10.046875 3.046875 -10.578125 C 3.347656 -11.109375 3.820312 -11.550781 4.46875 -11.90625 C 5.125 -12.269531 5.953125 -12.453125 6.953125 -12.453125 Z M 6.953125 -12.453125 "/></g></g></g><g fill="#191919" fill-opacity="1"><g transform="translate(700.945735, 112.538635)"><g><path d="M 5.5 -12.171875 L 7.546875 -12.171875 L 7.21875 -10.578125 L 5.171875 -10.578125 L 3.734375 -3.734375 C 3.578125 -2.960938 3.5 -2.484375 3.5 -2.296875 C 3.5 -1.796875 3.804688 -1.546875 4.421875 -1.546875 C 4.796875 -1.546875 5.203125 -1.59375 5.640625 -1.6875 L 5.28125 0 C 4.8125 0.144531 4.328125 0.21875 3.828125 0.21875 C 3.210938 0.21875 2.640625 0.078125 2.109375 -0.203125 C 1.578125 -0.492188 1.3125 -0.972656 1.3125 -1.640625 C 1.3125 -1.878906 1.40625 -2.460938 1.59375 -3.390625 L 3.109375 -10.578125 L 1.453125 -10.578125 L 1.78125 -12.171875 L 3.4375 -12.171875 L 4.0625 -15.1875 L 6.4375 -16.609375 Z M 5.5 -12.171875 "/></g></g></g><g fill="#191919" fill-opacity="1"><g transform="translate(707.477656, 112.538635)"><g><path d="M 4.375 -6.671875 C 4.414062 -6.085938 4.46875 -5.332031 4.53125 -4.40625 C 4.59375 -3.476562 4.625 -2.757812 4.625 -2.25 L 4.671875 -2.25 C 4.878906 -2.957031 5.0625 -3.53125 5.21875 -3.96875 C 5.382812 -4.40625 5.660156 -5.039062 6.046875 -5.875 L 8.9375 -12.171875 L 11.1875 -12.171875 L 11.578125 -6.109375 C 11.628906 -5.171875 11.65625 -4.238281 11.65625 -3.3125 C 11.664062 -3.113281 11.671875 -2.800781 11.671875 -2.375 L 11.71875 -2.375 C 11.976562 -3.1875 12.421875 -4.25 13.046875 -5.5625 L 16.1875 -12.171875 L 18.265625 -12.171875 L 12.3125 0 L 10.15625 0 L 9.6875 -7.140625 C 9.65625 -7.640625 9.640625 -8.507812 9.640625 -9.75 L 9.59375 -9.75 C 9.226562 -8.75 8.875 -7.878906 8.53125 -7.140625 L 5.28125 0 L 3.109375 0 L 1.828125 -12.171875 L 3.828125 -12.171875 Z M 4.375 -6.671875 "/></g></g></g><g fill="#191919" fill-opacity="1"><g transform="translate(724.441874, 112.538635)"><g><path d="M 7.6875 -12.453125 C 8.90625 -12.453125 9.914062 -12.140625 10.71875 -11.515625 C 11.28125 -11.085938 11.710938 -10.507812 12.015625 -9.78125 C 12.328125 -9.050781 12.484375 -8.257812 12.484375 -7.40625 C 12.484375 -6.84375 12.425781 -6.226562 12.3125 -5.5625 L 3.34375 -5.5625 C 3.3125 -5.3125 3.296875 -5.101562 3.296875 -4.9375 C 3.296875 -3.820312 3.550781 -2.953125 4.0625 -2.328125 C 4.582031 -1.710938 5.226562 -1.40625 6 -1.40625 C 6.632812 -1.40625 7.304688 -1.625 8.015625 -2.0625 C 8.734375 -2.5 9.296875 -3.191406 9.703125 -4.140625 L 11.71875 -3.921875 C 11.3125 -2.703125 10.570312 -1.695312 9.5 -0.90625 C 8.425781 -0.113281 7.257812 0.28125 6 0.28125 C 5.101562 0.28125 4.289062 0.0820312 3.5625 -0.3125 C 2.832031 -0.71875 2.257812 -1.3125 1.84375 -2.09375 C 1.425781 -2.875 1.21875 -3.804688 1.21875 -4.890625 C 1.21875 -6.003906 1.453125 -7.144531 1.921875 -8.3125 C 2.390625 -9.476562 3.113281 -10.457031 4.09375 -11.25 C 5.070312 -12.050781 6.269531 -12.453125 7.6875 -12.453125 Z M 3.671875 -7.171875 L 10.5 -7.171875 L 10.53125 -7.640625 C 10.53125 -8.671875 10.273438 -9.460938 9.765625 -10.015625 C 9.253906 -10.578125 8.566406 -10.859375 7.703125 -10.859375 C 6.671875 -10.859375 5.820312 -10.492188 5.15625 -9.765625 C 4.488281 -9.046875 3.992188 -8.179688 3.671875 -7.171875 Z M 3.671875 -7.171875 "/></g></g></g><g fill="#191919" fill-opacity="1"><g transform="translate(737.505716, 112.538635)"><g><path d="M 5.796875 -14.46875 L 3.71875 -14.46875 L 4.203125 -16.828125 L 6.296875 -16.828125 Z M 2.765625 0 L 0.703125 0 L 3.25 -12.171875 L 5.328125 -12.171875 Z M 2.765625 0 "/></g></g></g><g fill="#191919" fill-opacity="1"><g transform="translate(742.721841, 112.538635)"><g><path d="M 5.5 -12.171875 L 7.546875 -12.171875 L 7.21875 -10.578125 L 5.171875 -10.578125 L 3.734375 -3.734375 C 3.578125 -2.960938 3.5 -2.484375 3.5 -2.296875 C 3.5 -1.796875 3.804688 -1.546875 4.421875 -1.546875 C 4.796875 -1.546875 5.203125 -1.59375 5.640625 -1.6875 L 5.28125 0 C 4.8125 0.144531 4.328125 0.21875 3.828125 0.21875 C 3.210938 0.21875 2.640625 0.078125 2.109375 -0.203125 C 1.578125 -0.492188 1.3125 -0.972656 1.3125 -1.640625 C 1.3125 -1.878906 1.40625 -2.460938 1.59375 -3.390625 L 3.109375 -10.578125 L 1.453125 -10.578125 L 1.78125 -12.171875 L 3.4375 -12.171875 L 4.0625 -15.1875 L 6.4375 -16.609375 Z M 5.5 -12.171875 "/></g></g></g><g fill="#191919" fill-opacity="1"><g transform="translate(749.253762, 112.538635)"><g><path d="M 7.6875 -12.453125 C 8.90625 -12.453125 9.914062 -12.140625 10.71875 -11.515625 C 11.28125 -11.085938 11.710938 -10.507812 12.015625 -9.78125 C 12.328125 -9.050781 12.484375 -8.257812 12.484375 -7.40625 C 12.484375 -6.84375 12.425781 -6.226562 12.3125 -5.5625 L 3.34375 -5.5625 C 3.3125 -5.3125 3.296875 -5.101562 3.296875 -4.9375 C 3.296875 -3.820312 3.550781 -2.953125 4.0625 -2.328125 C 4.582031 -1.710938 5.226562 -1.40625 6 -1.40625 C 6.632812 -1.40625 7.304688 -1.625 8.015625 -2.0625 C 8.734375 -2.5 9.296875 -3.191406 9.703125 -4.140625 L 11.71875 -3.921875 C 11.3125 -2.703125 10.570312 -1.695312 9.5 -0.90625 C 8.425781 -0.113281 7.257812 0.28125 6 0.28125 C 5.101562 0.28125 4.289062 0.0820312 3.5625 -0.3125 C 2.832031 -0.71875 2.257812 -1.3125 1.84375 -2.09375 C 1.425781 -2.875 1.21875 -3.804688 1.21875 -4.890625 C 1.21875 -6.003906 1.453125 -7.144531 1.921875 -8.3125 C 2.390625 -9.476562 3.113281 -10.457031 4.09375 -11.25 C 5.070312 -12.050781 6.269531 -12.453125 7.6875 -12.453125 Z M 3.671875 -7.171875 L 10.5 -7.171875 L 10.53125 -7.640625 C 10.53125 -8.671875 10.273438 -9.460938 9.765625 -10.015625 C 9.253906 -10.578125 8.566406 -10.859375 7.703125 -10.859375 C 6.671875 -10.859375 5.820312 -10.492188 5.15625 -9.765625 C 4.488281 -9.046875 3.992188 -8.179688 3.671875 -7.171875 Z M 3.671875 -7.171875 "/></g></g></g><g fill="#191919" fill-opacity="1"><g transform="translate(762.317604, 112.538635)"><g><path d="M 8.3125 -12.453125 C 8.757812 -12.453125 9.28125 -12.304688 9.875 -12.015625 L 9 -10.078125 C 8.65625 -10.347656 8.265625 -10.484375 7.828125 -10.484375 C 7.421875 -10.484375 6.960938 -10.332031 6.453125 -10.03125 C 5.953125 -9.738281 5.484375 -9.242188 5.046875 -8.546875 C 4.816406 -8.160156 4.585938 -7.632812 4.359375 -6.96875 C 4.128906 -6.300781 3.9375 -5.609375 3.78125 -4.890625 L 2.75 0 L 0.78125 0 L 3.34375 -12.171875 L 5.171875 -12.171875 L 4.65625 -9.75 L 4.703125 -9.703125 C 5.234375 -10.597656 5.8125 -11.28125 6.4375 -11.75 C 7.0625 -12.21875 7.6875 -12.453125 8.3125 -12.453125 Z M 8.3125 -12.453125 "/></g></g></g><g fill="#191919" fill-opacity="1"><g transform="translate(770.141838, 112.538635)"><g><path d="M 2.703125 0 L 0.609375 0 L 4.140625 -16.828125 L 6.203125 -16.828125 Z M 2.703125 0 "/></g></g></g><g fill="#191919" fill-opacity="1"><g transform="translate(775.358009, 112.538635)"><g><path d="M 7.6875 -12.453125 C 8.90625 -12.453125 9.914062 -12.140625 10.71875 -11.515625 C 11.28125 -11.085938 11.710938 -10.507812 12.015625 -9.78125 C 12.328125 -9.050781 12.484375 -8.257812 12.484375 -7.40625 C 12.484375 -6.84375 12.425781 -6.226562 12.3125 -5.5625 L 3.34375 -5.5625 C 3.3125 -5.3125 3.296875 -5.101562 3.296875 -4.9375 C 3.296875 -3.820312 3.550781 -2.953125 4.0625 -2.328125 C 4.582031 -1.710938 5.226562 -1.40625 6 -1.40625 C 6.632812 -1.40625 7.304688 -1.625 8.015625 -2.0625 C 8.734375 -2.5 9.296875 -3.191406 9.703125 -4.140625 L 11.71875 -3.921875 C 11.3125 -2.703125 10.570312 -1.695312 9.5 -0.90625 C 8.425781 -0.113281 7.257812 0.28125 6 0.28125 C 5.101562 0.28125 4.289062 0.0820312 3.5625 -0.3125 C 2.832031 -0.71875 2.257812 -1.3125 1.84375 -2.09375 C 1.425781 -2.875 1.21875 -3.804688 1.21875 -4.890625 C 1.21875 -6.003906 1.453125 -7.144531 1.921875 -8.3125 C 2.390625 -9.476562 3.113281 -10.457031 4.09375 -11.25 C 5.070312 -12.050781 6.269531 -12.453125 7.6875 -12.453125 Z M 3.671875 -7.171875 L 10.5 -7.171875 L 10.53125 -7.640625 C 10.53125 -8.671875 10.273438 -9.460938 9.765625 -10.015625 C 9.253906 -10.578125 8.566406 -10.859375 7.703125 -10.859375 C 6.671875 -10.859375 5.820312 -10.492188 5.15625 -9.765625 C 4.488281 -9.046875 3.992188 -8.179688 3.671875 -7.171875 Z M 3.671875 -7.171875 "/></g></g></g><g fill="#191919" fill-opacity="1"><g transform="translate(788.421851, 112.538635)"><g><path d="M 5.796875 -14.46875 L 3.71875 -14.46875 L 4.203125 -16.828125 L 6.296875 -16.828125 Z M 2.765625 0 L 0.703125 0 L 3.25 -12.171875 L 5.328125 -12.171875 Z M 2.765625 0 "/></g></g></g><g fill="#191919" fill-opacity="1"><g transform="translate(793.637976, 112.538635)"><g><path d="M 5.5 -12.171875 L 7.546875 -12.171875 L 7.21875 -10.578125 L 5.171875 -10.578125 L 3.734375 -3.734375 C 3.578125 -2.960938 3.5 -2.484375 3.5 -2.296875 C 3.5 -1.796875 3.804688 -1.546875 4.421875 -1.546875 C 4.796875 -1.546875 5.203125 -1.59375 5.640625 -1.6875 L 5.28125 0 C 4.8125 0.144531 4.328125 0.21875 3.828125 0.21875 C 3.210938 0.21875 2.640625 0.078125 2.109375 -0.203125 C 1.578125 -0.492188 1.3125 -0.972656 1.3125 -1.640625 C 1.3125 -1.878906 1.40625 -2.460938 1.59375 -3.390625 L 3.109375 -10.578125 L 1.453125 -10.578125 L 1.78125 -12.171875 L 3.4375 -12.171875 L 4.0625 -15.1875 L 6.4375 -16.609375 Z M 5.5 -12.171875 "/></g></g></g><g fill="#191919" fill-opacity="1"><g transform="translate(800.169897, 112.538635)"><g><path d="M 3.828125 -4.8125 C 3.628906 -3.9375 3.53125 -3.296875 3.53125 -2.890625 C 3.53125 -2.421875 3.671875 -2.054688 3.953125 -1.796875 C 4.242188 -1.535156 4.664062 -1.40625 5.21875 -1.40625 C 6.34375 -1.40625 7.367188 -1.925781 8.296875 -2.96875 C 8.703125 -3.4375 9.023438 -3.984375 9.265625 -4.609375 C 9.515625 -5.234375 9.734375 -6 9.921875 -6.90625 L 11.015625 -12.171875 L 13.09375 -12.171875 L 10.546875 0 L 8.625 0 L 9.09375 -2.15625 L 9.046875 -2.203125 C 7.617188 -0.546875 6.140625 0.28125 4.609375 0.28125 C 3.765625 0.28125 3.023438 0.03125 2.390625 -0.46875 C 1.765625 -0.96875 1.453125 -1.648438 1.453125 -2.515625 C 1.453125 -2.816406 1.476562 -3.148438 1.53125 -3.515625 C 1.59375 -3.878906 1.703125 -4.421875 1.859375 -5.140625 L 3.3125 -12.171875 L 5.375 -12.171875 Z M 3.828125 -4.8125 "/></g></g></g><g fill="#191919" fill-opacity="1"><g transform="translate(813.233739, 112.538635)"><g><path d="M 9.234375 -12.453125 C 10.203125 -12.453125 10.972656 -12.1875 11.546875 -11.65625 C 12.117188 -11.125 12.40625 -10.410156 12.40625 -9.515625 C 12.40625 -9.023438 12.304688 -8.320312 12.109375 -7.40625 L 10.578125 0 L 8.484375 0 L 10.125 -7.828125 C 10.269531 -8.566406 10.34375 -9.082031 10.34375 -9.375 C 10.34375 -9.832031 10.1875 -10.175781 9.875 -10.40625 C 9.570312 -10.644531 9.1875 -10.765625 8.71875 -10.765625 C 8.039062 -10.765625 7.351562 -10.566406 6.65625 -10.171875 C 5.957031 -9.785156 5.390625 -9.191406 4.953125 -8.390625 C 4.566406 -7.640625 4.253906 -6.691406 4.015625 -5.546875 L 2.859375 0 L 0.78125 0 L 3.34375 -12.171875 L 5.21875 -12.171875 L 4.765625 -10.125 L 4.8125 -10.0625 C 5.457031 -10.726562 6.128906 -11.289062 6.828125 -11.75 C 7.523438 -12.21875 8.328125 -12.453125 9.234375 -12.453125 Z M 9.234375 -12.453125 "/></g></g></g><g fill="#191919" fill-opacity="1"><g transform="translate(826.297581, 112.538635)"><g><path d="M 7.265625 -12.453125 C 8.847656 -12.453125 10.082031 -11.691406 10.96875 -10.171875 L 11.328125 -12.171875 L 13.234375 -12.171875 L 10.765625 -0.421875 C 10.554688 0.546875 10.28125 1.40625 9.9375 2.15625 C 9.59375 2.914062 9.039062 3.554688 8.28125 4.078125 C 7.519531 4.597656 6.503906 4.859375 5.234375 4.859375 C 3.890625 4.859375 2.78125 4.613281 1.90625 4.125 C 1.039062 3.632812 0.609375 2.832031 0.609375 1.71875 C 0.609375 1.5 0.632812 1.296875 0.6875 1.109375 L 2.765625 1.296875 L 2.765625 1.484375 C 2.765625 2.054688 2.929688 2.476562 3.265625 2.75 C 3.609375 3.03125 4.195312 3.171875 5.03125 3.171875 C 5.71875 3.171875 6.285156 3.078125 6.734375 2.890625 C 7.191406 2.703125 7.570312 2.390625 7.875 1.953125 C 8.039062 1.679688 8.207031 1.269531 8.375 0.71875 C 8.539062 0.175781 8.65625 -0.28125 8.71875 -0.65625 L 8.890625 -1.640625 C 8.460938 -1.222656 7.984375 -0.84375 7.453125 -0.5 C 6.921875 -0.164062 6.269531 0 5.5 0 C 4.6875 0 3.945312 -0.195312 3.28125 -0.59375 C 2.625 -1 2.101562 -1.59375 1.71875 -2.375 C 1.34375 -3.15625 1.15625 -4.101562 1.15625 -5.21875 C 1.15625 -6.425781 1.429688 -7.585938 1.984375 -8.703125 C 2.535156 -9.828125 3.28125 -10.734375 4.21875 -11.421875 C 5.164062 -12.109375 6.179688 -12.453125 7.265625 -12.453125 Z M 3.265625 -5.359375 C 3.265625 -4.335938 3.472656 -3.46875 3.890625 -2.75 C 4.316406 -2.039062 4.988281 -1.6875 5.90625 -1.6875 C 6.789062 -1.6875 7.554688 -2 8.203125 -2.625 C 8.859375 -3.257812 9.351562 -4.03125 9.6875 -4.9375 C 10.03125 -5.84375 10.203125 -6.703125 10.203125 -7.515625 C 10.203125 -8.429688 9.9375 -9.203125 9.40625 -9.828125 C 8.882812 -10.453125 8.175781 -10.765625 7.28125 -10.765625 C 6.4375 -10.765625 5.710938 -10.453125 5.109375 -9.828125 C 4.503906 -9.203125 4.046875 -8.460938 3.734375 -7.609375 C 3.421875 -6.753906 3.265625 -6.003906 3.265625 -5.359375 Z M 3.265625 -5.359375 "/></g></g></g></svg>